<?xml version="1.0" encoding="UTF-8" standalone="no"?>
<!DOCTYPE svg PUBLIC "-//W3C//DTD SVG 1.1//EN"
 "http://www.w3.org/Graphics/SVG/1.1/DTD/svg11.dtd">
<!-- Generated by graphviz version 12.1.2 (20240928.0832)
 -->
<!-- Title: _realtime.extensions Pages: 1 -->
<svg width="854pt" height="1218pt"
 viewBox="0.00 0.00 854.32 1218.00" xmlns="http://www.w3.org/2000/svg" xmlns:xlink="http://www.w3.org/1999/xlink">
<g id="graph0" class="graph" transform="scale(1 1) rotate(0) translate(4 1214)">
<title>_realtime.extensions</title>
<polygon fill="white" stroke="none" points="-4,4 -4,-1214 850.32,-1214 850.32,4 -4,4"/>
<!-- _realtime.extensions -->
<g id="node1" class="node">
<title>_realtime.extensions</title>
<polygon fill="#efefef" stroke="none" points="64.22,-1128.2 64.22,-1163.8 354.48,-1163.8 354.48,-1128.2 64.22,-1128.2"/>
<polygon fill="none" stroke="black" points="64.22,-1128.2 64.22,-1163.8 354.48,-1163.8 354.48,-1128.2 64.22,-1128.2"/>
<text text-anchor="start" x="72.88" y="-1141.6" font-family="Arial Bold" font-size="18.00">_realtime.extensions</text>
<text text-anchor="start" x="221.33" y="-1141.6" font-family="Arial" font-size="14.00">    </text>
<text text-anchor="start" x="252.45" y="-1141.6" font-family="Arial" font-size="14.00" fill="#666666">[BASE TABLE]</text>
<polygon fill="none" stroke="black" points="64.22,-1097.4 64.22,-1128.2 354.48,-1128.2 354.48,-1097.4 64.22,-1097.4"/>
<text text-anchor="start" x="71.22" y="-1109.6" font-family="Arial" font-size="14.00">id </text>
<text text-anchor="start" x="86.01" y="-1109.6" font-family="Arial" font-size="14.00" fill="#666666">[uuid]</text>
<polygon fill="none" stroke="black" points="64.22,-1066.6 64.22,-1097.4 354.48,-1097.4 354.48,-1066.6 64.22,-1066.6"/>
<text text-anchor="start" x="71.22" y="-1078.8" font-family="Arial" font-size="14.00">type </text>
<text text-anchor="start" x="101.58" y="-1078.8" font-family="Arial" font-size="14.00" fill="#666666">[text]</text>
<polygon fill="none" stroke="black" points="64.22,-1035.8 64.22,-1066.6 354.48,-1066.6 354.48,-1035.8 64.22,-1035.8"/>
<text text-anchor="start" x="71.22" y="-1048" font-family="Arial" font-size="14.00">settings </text>
<text text-anchor="start" x="123.36" y="-1048" font-family="Arial" font-size="14.00" fill="#666666">[jsonb]</text>
<polygon fill="none" stroke="black" points="64.22,-1005 64.22,-1035.8 354.48,-1035.8 354.48,-1005 64.22,-1005"/>
<text text-anchor="start" x="71.22" y="-1017.2" font-family="Arial" font-size="14.00">tenant_external_id </text>
<text text-anchor="start" x="190.31" y="-1017.2" font-family="Arial" font-size="14.00" fill="#666666">[text]</text>
<polygon fill="none" stroke="black" points="64.22,-974.2 64.22,-1005 354.48,-1005 354.48,-974.2 64.22,-974.2"/>
<text text-anchor="start" x="71.22" y="-986.4" font-family="Arial" font-size="14.00">inserted_at </text>
<text text-anchor="start" x="144.38" y="-986.4" font-family="Arial" font-size="14.00" fill="#666666">[timestamp(0) without time zone]</text>
<polygon fill="none" stroke="black" points="64.22,-943.4 64.22,-974.2 354.48,-974.2 354.48,-943.4 64.22,-943.4"/>
<text text-anchor="start" x="71.22" y="-955.6" font-family="Arial" font-size="14.00">updated_at </text>
<text text-anchor="start" x="145.18" y="-955.6" font-family="Arial" font-size="14.00" fill="#666666">[timestamp(0) without time zone]</text>
<polygon fill="none" stroke="black" stroke-width="3" points="62.72,-941.9 62.72,-1165.3 355.98,-1165.3 355.98,-941.9 62.72,-941.9"/>
</g>
<!-- _realtime.tenants -->
<g id="node2" class="node">
<title>_realtime.tenants</title>
<polygon fill="#efefef" stroke="none" points="43.2,-782.4 43.2,-818 375.5,-818 375.5,-782.4 43.2,-782.4"/>
<polygon fill="none" stroke="black" points="43.2,-782.4 43.2,-818 375.5,-818 375.5,-782.4 43.2,-782.4"/>
<text text-anchor="start" x="85.38" y="-795.8" font-family="Arial Bold" font-size="18.00">_realtime.tenants</text>
<text text-anchor="start" x="208.83" y="-795.8" font-family="Arial" font-size="14.00">    </text>
<text text-anchor="start" x="239.95" y="-795.8" font-family="Arial" font-size="14.00" fill="#666666">[BASE TABLE]</text>
<polygon fill="none" stroke="black" points="43.2,-751.6 43.2,-782.4 375.5,-782.4 375.5,-751.6 43.2,-751.6"/>
<text text-anchor="start" x="50.2" y="-763.8" font-family="Arial" font-size="14.00">id </text>
<text text-anchor="start" x="64.99" y="-763.8" font-family="Arial" font-size="14.00" fill="#666666">[uuid]</text>
<polygon fill="none" stroke="black" points="43.2,-720.8 43.2,-751.6 375.5,-751.6 375.5,-720.8 43.2,-720.8"/>
<text text-anchor="start" x="50.2" y="-733" font-family="Arial" font-size="14.00">name </text>
<text text-anchor="start" x="89.11" y="-733" font-family="Arial" font-size="14.00" fill="#666666">[text]</text>
<polygon fill="none" stroke="black" points="43.2,-690 43.2,-720.8 375.5,-720.8 375.5,-690 43.2,-690"/>
<text text-anchor="start" x="50.2" y="-702.2" font-family="Arial" font-size="14.00">external_id </text>
<text text-anchor="start" x="122.58" y="-702.2" font-family="Arial" font-size="14.00" fill="#666666">[text]</text>
<polygon fill="none" stroke="black" points="43.2,-659.2 43.2,-690 375.5,-690 375.5,-659.2 43.2,-659.2"/>
<text text-anchor="start" x="50.2" y="-671.4" font-family="Arial" font-size="14.00">jwt_secret </text>
<text text-anchor="start" x="117.11" y="-671.4" font-family="Arial" font-size="14.00" fill="#666666">[text]</text>
<polygon fill="none" stroke="black" points="43.2,-628.4 43.2,-659.2 375.5,-659.2 375.5,-628.4 43.2,-628.4"/>
<text text-anchor="start" x="50.2" y="-640.6" font-family="Arial" font-size="14.00">max_concurrent_users </text>
<text text-anchor="start" x="196.49" y="-640.6" font-family="Arial" font-size="14.00" fill="#666666">[integer]</text>
<polygon fill="none" stroke="black" points="43.2,-597.6 43.2,-628.4 375.5,-628.4 375.5,-597.6 43.2,-597.6"/>
<text text-anchor="start" x="50.2" y="-609.8" font-family="Arial" font-size="14.00">inserted_at </text>
<text text-anchor="start" x="123.36" y="-609.8" font-family="Arial" font-size="14.00" fill="#666666">[timestamp(0) without time zone]</text>
<polygon fill="none" stroke="black" points="43.2,-566.8 43.2,-597.6 375.5,-597.6 375.5,-566.8 43.2,-566.8"/>
<text text-anchor="start" x="50.2" y="-579" font-family="Arial" font-size="14.00">updated_at </text>
<text text-anchor="start" x="124.16" y="-579" font-family="Arial" font-size="14.00" fill="#666666">[timestamp(0) without time zone]</text>
<polygon fill="none" stroke="black" points="43.2,-536 43.2,-566.8 375.5,-566.8 375.5,-536 43.2,-536"/>
<text text-anchor="start" x="50.2" y="-548.2" font-family="Arial" font-size="14.00">max_events_per_second </text>
<text text-anchor="start" x="210.52" y="-548.2" font-family="Arial" font-size="14.00" fill="#666666">[integer]</text>
<polygon fill="none" stroke="black" points="43.2,-505.2 43.2,-536 375.5,-536 375.5,-505.2 43.2,-505.2"/>
<text text-anchor="start" x="50.2" y="-517.4" font-family="Arial" font-size="14.00">postgres_cdc_default </text>
<text text-anchor="start" x="187.18" y="-517.4" font-family="Arial" font-size="14.00" fill="#666666">[text]</text>
<polygon fill="none" stroke="black" points="43.2,-474.4 43.2,-505.2 375.5,-505.2 375.5,-474.4 43.2,-474.4"/>
<text text-anchor="start" x="50.2" y="-486.6" font-family="Arial" font-size="14.00">max_bytes_per_second </text>
<text text-anchor="start" x="202.74" y="-486.6" font-family="Arial" font-size="14.00" fill="#666666">[integer]</text>
<polygon fill="none" stroke="black" points="43.2,-443.6 43.2,-474.4 375.5,-474.4 375.5,-443.6 43.2,-443.6"/>
<text text-anchor="start" x="50.2" y="-455.8" font-family="Arial" font-size="14.00">max_channels_per_client </text>
<text text-anchor="start" x="212.85" y="-455.8" font-family="Arial" font-size="14.00" fill="#666666">[integer]</text>
<polygon fill="none" stroke="black" points="43.2,-412.8 43.2,-443.6 375.5,-443.6 375.5,-412.8 43.2,-412.8"/>
<text text-anchor="start" x="50.2" y="-425" font-family="Arial" font-size="14.00">max_joins_per_second </text>
<text text-anchor="start" x="198.07" y="-425" font-family="Arial" font-size="14.00" fill="#666666">[integer]</text>
<polygon fill="none" stroke="black" points="43.2,-382 43.2,-412.8 375.5,-412.8 375.5,-382 43.2,-382"/>
<text text-anchor="start" x="50.2" y="-394.2" font-family="Arial" font-size="14.00">suspend </text>
<text text-anchor="start" x="107.02" y="-394.2" font-family="Arial" font-size="14.00" fill="#666666">[boolean]</text>
<polygon fill="none" stroke="black" points="43.2,-351.2 43.2,-382 375.5,-382 375.5,-351.2 43.2,-351.2"/>
<text text-anchor="start" x="50.2" y="-363.4" font-family="Arial" font-size="14.00">jwt_jwks </text>
<text text-anchor="start" x="106.21" y="-363.4" font-family="Arial" font-size="14.00" fill="#666666">[jsonb]</text>
<polygon fill="none" stroke="black" points="43.2,-320.4 43.2,-351.2 375.5,-351.2 375.5,-320.4 43.2,-320.4"/>
<text text-anchor="start" x="50.2" y="-332.6" font-family="Arial" font-size="14.00">notify_private_alpha </text>
<text text-anchor="start" x="179.4" y="-332.6" font-family="Arial" font-size="14.00" fill="#666666">[boolean]</text>
<polygon fill="none" stroke="black" points="43.2,-289.6 43.2,-320.4 375.5,-320.4 375.5,-289.6 43.2,-289.6"/>
<text text-anchor="start" x="50.2" y="-301.8" font-family="Arial" font-size="14.00">private_only </text>
<text text-anchor="start" x="129.58" y="-301.8" font-family="Arial" font-size="14.00" fill="#666666">[boolean]</text>
<polygon fill="none" stroke="black" points="43.2,-258.8 43.2,-289.6 375.5,-289.6 375.5,-258.8 43.2,-258.8"/>
<text text-anchor="start" x="50.2" y="-271" font-family="Arial" font-size="14.00">migrations_ran </text>
<text text-anchor="start" x="146.69" y="-271" font-family="Arial" font-size="14.00" fill="#666666">[integer]</text>
<polygon fill="none" stroke="black" points="43.2,-228 43.2,-258.8 375.5,-258.8 375.5,-228 43.2,-228"/>
<text text-anchor="start" x="50.2" y="-240.2" font-family="Arial" font-size="14.00">broadcast_adapter </text>
<text text-anchor="start" x="170.84" y="-240.2" font-family="Arial" font-size="14.00" fill="#666666">[varchar(255)]</text>
<polygon fill="none" stroke="black" points="43.2,-197.2 43.2,-228 375.5,-228 375.5,-197.2 43.2,-197.2"/>
<text text-anchor="start" x="50.2" y="-209.4" font-family="Arial" font-size="14.00">max_presence_events_per_second </text>
<text text-anchor="start" x="275.9" y="-209.4" font-family="Arial" font-size="14.00" fill="#666666">[integer]</text>
<polygon fill="none" stroke="black" points="43.2,-166.4 43.2,-197.2 375.5,-197.2 375.5,-166.4 43.2,-166.4"/>
<text text-anchor="start" x="50.2" y="-178.6" font-family="Arial" font-size="14.00">max_payload_size_in_kb </text>
<text text-anchor="start" x="211.3" y="-178.6" font-family="Arial" font-size="14.00" fill="#666666">[integer]</text>
<polygon fill="none" stroke="black" points="43.2,-135.6 43.2,-166.4 375.5,-166.4 375.5,-135.6 43.2,-135.6"/>
<text text-anchor="start" x="50.2" y="-147.8" font-family="Arial" font-size="14.00">max_client_presence_events_per_window </text>
<text text-anchor="start" x="317.92" y="-147.8" font-family="Arial" font-size="14.00" fill="#666666">[integer]</text>
<polygon fill="none" stroke="black" points="43.2,-104.8 43.2,-135.6 375.5,-135.6 375.5,-104.8 43.2,-104.8"/>
<text text-anchor="start" x="50.2" y="-117" font-family="Arial" font-size="14.00">client_presence_window_ms </text>
<text text-anchor="start" x="233.07" y="-117" font-family="Arial" font-size="14.00" fill="#666666">[integer]</text>
<polygon fill="none" stroke="black" points="43.2,-74 43.2,-104.8 375.5,-104.8 375.5,-74 43.2,-74"/>
<text text-anchor="start" x="50.2" y="-86.2" font-family="Arial" font-size="14.00">presence_enabled </text>
<text text-anchor="start" x="169.3" y="-86.2" font-family="Arial" font-size="14.00" fill="#666666">[boolean]</text>
<polygon fill="none" stroke="black" points="43.2,-43.2 43.2,-74 375.5,-74 375.5,-43.2 43.2,-43.2"/>
<text text-anchor="start" x="50.2" y="-55.4" font-family="Arial" font-size="14.00">feature_flags </text>
<text text-anchor="start" x="135.03" y="-55.4" font-family="Arial" font-size="14.00" fill="#666666">[jsonb]</text>
</g>
<!-- _realtime.extensions&#45;&gt;_realtime.tenants -->
<g id="edge1" class="edge">
<title>_realtime.extensions:tenant_external_id&#45;&gt;_realtime.tenants:external_id</title>
<path fill="none" stroke="black" d="M365.4,-1018.22C427.47,-990.39 443.23,-705.4 376.5,-705.4"/>
<polygon fill="black" stroke="black" points="365.57,-1018.18 354.84,-1015.93 360.36,-1019.33 356.13,-1020.26 356.13,-1020.26 356.13,-1020.26 360.36,-1019.33 356.77,-1024.72 365.57,-1018.18"/>
<text text-anchor="start" x="362.48" y="-1030.4" font-family="Arial" font-size="10.00">FOREIGN KEY (tenant_external_id) REFERENCES _realtime.tenants(external_id) ON DELETE CASCADE</text>
</g>
</g>
</svg>
