<?xml version="1.0" encoding="UTF-8" standalone="no"?>
<!DOCTYPE svg PUBLIC "-//W3C//DTD SVG 1.1//EN"
 "http://www.w3.org/Graphics/SVG/1.1/DTD/svg11.dtd">
<!-- Generated by graphviz version 12.1.2 (20240928.0832)
 -->
<!-- Title: public.course_occurrences Pages: 1 -->
<svg width="478pt" height="664pt"
 viewBox="0.00 0.00 477.65 663.60" xmlns="http://www.w3.org/2000/svg" xmlns:xlink="http://www.w3.org/1999/xlink">
<g id="graph0" class="graph" transform="scale(1 1) rotate(0) translate(4 659.6)">
<title>public.course_occurrences</title>
<polygon fill="white" stroke="none" points="-4,4 -4,-659.6 473.65,-659.6 473.65,4 -4,4"/>
<!-- public.course_occurrences -->
<g id="node1" class="node">
<title>public.course_occurrences</title>
<polygon fill="#efefef" stroke="none" points="93.55,-573.8 93.55,-609.4 423.45,-609.4 423.45,-573.8 93.55,-573.8"/>
<polygon fill="none" stroke="black" points="93.55,-573.8 93.55,-609.4 423.45,-609.4 423.45,-573.8 93.55,-573.8"/>
<text text-anchor="start" x="100.55" y="-587.2" font-family="Arial Bold" font-size="18.00">public.course_occurrences</text>
<text text-anchor="start" x="291.96" y="-587.2" font-family="Arial" font-size="14.00">    </text>
<text text-anchor="start" x="323.08" y="-587.2" font-family="Arial" font-size="14.00" fill="#666666">[BASE TABLE]</text>
<polygon fill="none" stroke="black" points="93.55,-543 93.55,-573.8 423.45,-573.8 423.45,-543 93.55,-543"/>
<text text-anchor="start" x="100.55" y="-555.2" font-family="Arial" font-size="14.00">id </text>
<text text-anchor="start" x="115.34" y="-555.2" font-family="Arial" font-size="14.00" fill="#666666">[bigint]</text>
<polygon fill="none" stroke="black" points="93.55,-512.2 93.55,-543 423.45,-543 423.45,-512.2 93.55,-512.2"/>
<text text-anchor="start" x="100.55" y="-524.4" font-family="Arial" font-size="14.00">starts_at_utc </text>
<text text-anchor="start" x="184.59" y="-524.4" font-family="Arial" font-size="14.00" fill="#666666">[timestamp with time zone]</text>
<polygon fill="none" stroke="black" points="93.55,-481.4 93.55,-512.2 423.45,-512.2 423.45,-481.4 93.55,-481.4"/>
<text text-anchor="start" x="100.55" y="-493.6" font-family="Arial" font-size="14.00">ends_at_utc </text>
<text text-anchor="start" x="180.73" y="-493.6" font-family="Arial" font-size="14.00" fill="#666666">[timestamp with time zone]</text>
<polygon fill="none" stroke="black" points="93.55,-450.6 93.55,-481.4 423.45,-481.4 423.45,-450.6 93.55,-450.6"/>
<text text-anchor="start" x="100.55" y="-462.8" font-family="Arial" font-size="14.00">course_id </text>
<text text-anchor="start" x="165.15" y="-462.8" font-family="Arial" font-size="14.00" fill="#666666">[bigint]</text>
<polygon fill="none" stroke="black" stroke-width="3" points="92.05,-449.1 92.05,-610.9 424.95,-610.9 424.95,-449.1 92.05,-449.1"/>
</g>
<!-- public.courses -->
<g id="node2" class="node">
<title>public.courses</title>
<polygon fill="#efefef" stroke="none" points="133.62,-289.6 133.62,-325.2 383.39,-325.2 383.39,-289.6 133.62,-289.6"/>
<polygon fill="none" stroke="black" points="133.62,-289.6 133.62,-325.2 383.39,-325.2 383.39,-289.6 133.62,-289.6"/>
<text text-anchor="start" x="144.52" y="-303" font-family="Arial Bold" font-size="18.00">public.courses</text>
<text text-anchor="start" x="247.99" y="-303" font-family="Arial" font-size="14.00">    </text>
<text text-anchor="start" x="279.11" y="-303" font-family="Arial" font-size="14.00" fill="#666666">[BASE TABLE]</text>
<polygon fill="none" stroke="black" points="133.62,-258.8 133.62,-289.6 383.39,-289.6 383.39,-258.8 133.62,-258.8"/>
<text text-anchor="start" x="140.62" y="-271" font-family="Arial" font-size="14.00">id </text>
<text text-anchor="start" x="155.4" y="-271" font-family="Arial" font-size="14.00" fill="#666666">[bigint]</text>
<polygon fill="none" stroke="black" points="133.62,-228 133.62,-258.8 383.39,-258.8 383.39,-228 133.62,-228"/>
<text text-anchor="start" x="140.62" y="-240.2" font-family="Arial" font-size="14.00">title </text>
<text text-anchor="start" x="166.29" y="-240.2" font-family="Arial" font-size="14.00" fill="#666666">[text]</text>
<polygon fill="none" stroke="black" points="133.62,-197.2 133.62,-228 383.39,-228 383.39,-197.2 133.62,-197.2"/>
<text text-anchor="start" x="140.62" y="-209.4" font-family="Arial" font-size="14.00">description </text>
<text text-anchor="start" x="212.21" y="-209.4" font-family="Arial" font-size="14.00" fill="#666666">[text]</text>
<polygon fill="none" stroke="black" points="133.62,-166.4 133.62,-197.2 383.39,-197.2 383.39,-166.4 133.62,-166.4"/>
<text text-anchor="start" x="140.62" y="-178.6" font-family="Arial" font-size="14.00">price </text>
<text text-anchor="start" x="174.85" y="-178.6" font-family="Arial" font-size="14.00" fill="#666666">[real]</text>
<polygon fill="none" stroke="black" points="133.62,-135.6 133.62,-166.4 383.39,-166.4 383.39,-135.6 133.62,-135.6"/>
<text text-anchor="start" x="140.62" y="-147.8" font-family="Arial" font-size="14.00">location </text>
<text text-anchor="start" x="192.76" y="-147.8" font-family="Arial" font-size="14.00" fill="#666666">[text]</text>
<polygon fill="none" stroke="black" points="133.62,-104.8 133.62,-135.6 383.39,-135.6 383.39,-104.8 133.62,-104.8"/>
<text text-anchor="start" x="140.62" y="-117" font-family="Arial" font-size="14.00">timezone </text>
<text text-anchor="start" x="201.31" y="-117" font-family="Arial" font-size="14.00" fill="#666666">[text]</text>
<polygon fill="none" stroke="black" points="133.62,-74 133.62,-104.8 383.39,-104.8 383.39,-74 133.62,-74"/>
<text text-anchor="start" x="140.62" y="-86.2" font-family="Arial" font-size="14.00">created_at </text>
<text text-anchor="start" x="210.66" y="-86.2" font-family="Arial" font-size="14.00" fill="#666666">[timestamp with time zone]</text>
<polygon fill="none" stroke="black" points="133.62,-43.2 133.62,-74 383.39,-74 383.39,-43.2 133.62,-43.2"/>
<text text-anchor="start" x="140.62" y="-55.4" font-family="Arial" font-size="14.00">payment_method </text>
<text text-anchor="start" x="252.68" y="-55.4" font-family="Arial" font-size="14.00" fill="#666666">[text]</text>
</g>
<!-- public.course_occurrences&#45;&gt;public.courses -->
<g id="edge1" class="edge">
<title>public.course_occurrences:course_id&#45;&gt;public.courses:id</title>
<path fill="none" stroke="black" d="M259.37,-439.36C268.84,-387.94 353.31,-423.14 383.39,-368.4 403.55,-331.71 426.26,-274.2 384.39,-274.2"/>
<polygon fill="black" stroke="black" points="259.37,-439.3 254.05,-448.89 258.92,-444.62 258.56,-448.93 258.56,-448.93 258.56,-448.93 258.92,-444.62 263.01,-449.65 259.37,-439.3"/>
<text text-anchor="start" x="7" y="-459.6" font-family="Arial" font-size="10.00">FOREIGN KEY (course_id) REFERENCES courses(id)</text>
</g>
</g>
</svg>
