<?xml version="1.0" encoding="UTF-8" standalone="no"?>
<!DOCTYPE svg PUBLIC "-//W3C//DTD SVG 1.1//EN"
 "http://www.w3.org/Graphics/SVG/1.1/DTD/svg11.dtd">
<!-- Generated by graphviz version 12.1.2 (20240928.0832)
 -->
<!-- Title: public.mentorship_listings Pages: 1 -->
<svg width="973pt" height="1715pt"
 viewBox="0.00 0.00 972.81 1714.80" xmlns="http://www.w3.org/2000/svg" xmlns:xlink="http://www.w3.org/1999/xlink">
<g id="graph0" class="graph" transform="scale(1 1) rotate(0) translate(4 1710.8)">
<title>public.mentorship_listings</title>
<polygon fill="white" stroke="none" points="-4,4 -4,-1710.8 968.81,-1710.8 968.81,4 -4,4"/>
<!-- public.mentorship_listings -->
<g id="node1" class="node">
<title>public.mentorship_listings</title>
<polygon fill="#efefef" stroke="none" points="269.18,-1128.2 269.18,-1163.8 599.17,-1163.8 599.17,-1128.2 269.18,-1128.2"/>
<polygon fill="none" stroke="black" points="269.18,-1128.2 269.18,-1163.8 599.17,-1163.8 599.17,-1128.2 269.18,-1128.2"/>
<text text-anchor="start" x="276.18" y="-1141.6" font-family="Arial Bold" font-size="18.00">public.mentorship_listings</text>
<text text-anchor="start" x="467.68" y="-1141.6" font-family="Arial" font-size="14.00">    </text>
<text text-anchor="start" x="498.8" y="-1141.6" font-family="Arial" font-size="14.00" fill="#666666">[BASE TABLE]</text>
<polygon fill="none" stroke="black" points="269.18,-1097.4 269.18,-1128.2 599.17,-1128.2 599.17,-1097.4 269.18,-1097.4"/>
<text text-anchor="start" x="276.18" y="-1109.6" font-family="Arial" font-size="14.00">id </text>
<text text-anchor="start" x="290.97" y="-1109.6" font-family="Arial" font-size="14.00" fill="#666666">[uuid]</text>
<polygon fill="none" stroke="black" points="269.18,-1066.6 269.18,-1097.4 599.17,-1097.4 599.17,-1066.6 269.18,-1066.6"/>
<text text-anchor="start" x="276.18" y="-1078.8" font-family="Arial" font-size="14.00">author_id </text>
<text text-anchor="start" x="338.45" y="-1078.8" font-family="Arial" font-size="14.00" fill="#666666">[uuid]</text>
<polygon fill="none" stroke="black" points="269.18,-1035.8 269.18,-1066.6 599.17,-1066.6 599.17,-1035.8 269.18,-1035.8"/>
<text text-anchor="start" x="276.18" y="-1048" font-family="Arial" font-size="14.00">type </text>
<text text-anchor="start" x="306.53" y="-1048" font-family="Arial" font-size="14.00" fill="#666666">[text]</text>
<polygon fill="none" stroke="black" points="269.18,-1005 269.18,-1035.8 599.17,-1035.8 599.17,-1005 269.18,-1005"/>
<text text-anchor="start" x="276.18" y="-1017.2" font-family="Arial" font-size="14.00">title </text>
<text text-anchor="start" x="301.86" y="-1017.2" font-family="Arial" font-size="14.00" fill="#666666">[text]</text>
<polygon fill="none" stroke="black" points="269.18,-974.2 269.18,-1005 599.17,-1005 599.17,-974.2 269.18,-974.2"/>
<text text-anchor="start" x="276.18" y="-986.4" font-family="Arial" font-size="14.00">description </text>
<text text-anchor="start" x="347.78" y="-986.4" font-family="Arial" font-size="14.00" fill="#666666">[text]</text>
<polygon fill="none" stroke="black" points="269.18,-943.4 269.18,-974.2 599.17,-974.2 599.17,-943.4 269.18,-943.4"/>
<text text-anchor="start" x="276.18" y="-955.6" font-family="Arial" font-size="14.00">subject_ids </text>
<text text-anchor="start" x="350.11" y="-955.6" font-family="Arial" font-size="14.00" fill="#666666">[bigint[]]</text>
<polygon fill="none" stroke="black" points="269.18,-912.6 269.18,-943.4 599.17,-943.4 599.17,-912.6 269.18,-912.6"/>
<text text-anchor="start" x="276.18" y="-924.8" font-family="Arial" font-size="14.00">class_levels </text>
<text text-anchor="start" x="355.55" y="-924.8" font-family="Arial" font-size="14.00" fill="#666666">[text[]]</text>
<polygon fill="none" stroke="black" points="269.18,-881.8 269.18,-912.6 599.17,-912.6 599.17,-881.8 269.18,-881.8"/>
<text text-anchor="start" x="276.18" y="-894" font-family="Arial" font-size="14.00">max_mentees </text>
<text text-anchor="start" x="368" y="-894" font-family="Arial" font-size="14.00" fill="#666666">[integer]</text>
<polygon fill="none" stroke="black" points="269.18,-851 269.18,-881.8 599.17,-881.8 599.17,-851 269.18,-851"/>
<text text-anchor="start" x="276.18" y="-863.2" font-family="Arial" font-size="14.00">current_mentees </text>
<text text-anchor="start" x="385.13" y="-863.2" font-family="Arial" font-size="14.00" fill="#666666">[integer]</text>
<polygon fill="none" stroke="black" points="269.18,-820.2 269.18,-851 599.17,-851 599.17,-820.2 269.18,-820.2"/>
<text text-anchor="start" x="276.18" y="-832.4" font-family="Arial" font-size="14.00">availability </text>
<text text-anchor="start" x="344.66" y="-832.4" font-family="Arial" font-size="14.00" fill="#666666">[text]</text>
<polygon fill="none" stroke="black" points="269.18,-789.4 269.18,-820.2 599.17,-820.2 599.17,-789.4 269.18,-789.4"/>
<text text-anchor="start" x="276.18" y="-801.6" font-family="Arial" font-size="14.00">status </text>
<text text-anchor="start" x="317.42" y="-801.6" font-family="Arial" font-size="14.00" fill="#666666">[text]</text>
<polygon fill="none" stroke="black" points="269.18,-758.6 269.18,-789.4 599.17,-789.4 599.17,-758.6 269.18,-758.6"/>
<text text-anchor="start" x="276.18" y="-770.8" font-family="Arial" font-size="14.00">is_featured </text>
<text text-anchor="start" x="349.34" y="-770.8" font-family="Arial" font-size="14.00" fill="#666666">[boolean]</text>
<polygon fill="none" stroke="black" points="269.18,-727.8 269.18,-758.6 599.17,-758.6 599.17,-727.8 269.18,-727.8"/>
<text text-anchor="start" x="276.18" y="-740" font-family="Arial" font-size="14.00">created_at </text>
<text text-anchor="start" x="346.23" y="-740" font-family="Arial" font-size="14.00" fill="#666666">[timestamp with time zone]</text>
<polygon fill="none" stroke="black" points="269.18,-697 269.18,-727.8 599.17,-727.8 599.17,-697 269.18,-697"/>
<text text-anchor="start" x="276.18" y="-709.2" font-family="Arial" font-size="14.00">updated_at </text>
<text text-anchor="start" x="350.14" y="-709.2" font-family="Arial" font-size="14.00" fill="#666666">[timestamp with time zone]</text>
<polygon fill="none" stroke="black" points="269.18,-666.2 269.18,-697 599.17,-697 599.17,-666.2 269.18,-666.2"/>
<text text-anchor="start" x="276.18" y="-678.4" font-family="Arial" font-size="14.00">expires_at </text>
<text text-anchor="start" x="344.67" y="-678.4" font-family="Arial" font-size="14.00" fill="#666666">[timestamp with time zone]</text>
<polygon fill="none" stroke="black" stroke-width="3" points="267.68,-664.7 267.68,-1165.3 600.67,-1165.3 600.67,-664.7 267.68,-664.7"/>
</g>
<!-- public.profiles -->
<g id="node4" class="node">
<title>public.profiles</title>
<polygon fill="#efefef" stroke="none" points="307.34,-505.2 307.34,-540.8 561.02,-540.8 561.02,-505.2 307.34,-505.2"/>
<polygon fill="none" stroke="black" points="307.34,-505.2 307.34,-540.8 561.02,-540.8 561.02,-505.2 307.34,-505.2"/>
<text text-anchor="start" x="319.69" y="-518.6" font-family="Arial Bold" font-size="18.00">public.profiles</text>
<text text-anchor="start" x="424.17" y="-518.6" font-family="Arial" font-size="14.00">    </text>
<text text-anchor="start" x="455.29" y="-518.6" font-family="Arial" font-size="14.00" fill="#666666">[BASE TABLE]</text>
<polygon fill="none" stroke="black" points="307.34,-474.4 307.34,-505.2 561.02,-505.2 561.02,-474.4 307.34,-474.4"/>
<text text-anchor="start" x="314.34" y="-486.6" font-family="Arial" font-size="14.00">id </text>
<text text-anchor="start" x="329.12" y="-486.6" font-family="Arial" font-size="14.00" fill="#666666">[uuid]</text>
<polygon fill="none" stroke="black" points="307.34,-443.6 307.34,-474.4 561.02,-474.4 561.02,-443.6 307.34,-443.6"/>
<text text-anchor="start" x="314.34" y="-455.8" font-family="Arial" font-size="14.00">first_name </text>
<text text-anchor="start" x="383.58" y="-455.8" font-family="Arial" font-size="14.00" fill="#666666">[text]</text>
<polygon fill="none" stroke="black" points="307.34,-412.8 307.34,-443.6 561.02,-443.6 561.02,-412.8 307.34,-412.8"/>
<text text-anchor="start" x="314.34" y="-425" font-family="Arial" font-size="14.00">last_name </text>
<text text-anchor="start" x="382.82" y="-425" font-family="Arial" font-size="14.00" fill="#666666">[text]</text>
<polygon fill="none" stroke="black" points="307.34,-382 307.34,-412.8 561.02,-412.8 561.02,-382 307.34,-382"/>
<text text-anchor="start" x="314.34" y="-394.2" font-family="Arial" font-size="14.00">phone </text>
<text text-anchor="start" x="357.16" y="-394.2" font-family="Arial" font-size="14.00" fill="#666666">[text]</text>
<polygon fill="none" stroke="black" points="307.34,-351.2 307.34,-382 561.02,-382 561.02,-351.2 307.34,-351.2"/>
<text text-anchor="start" x="314.34" y="-363.4" font-family="Arial" font-size="14.00">avatar_url </text>
<text text-anchor="start" x="380.48" y="-363.4" font-family="Arial" font-size="14.00" fill="#666666">[text]</text>
<polygon fill="none" stroke="black" points="307.34,-320.4 307.34,-351.2 561.02,-351.2 561.02,-320.4 307.34,-320.4"/>
<text text-anchor="start" x="314.34" y="-332.6" font-family="Arial" font-size="14.00">email </text>
<text text-anchor="start" x="351.68" y="-332.6" font-family="Arial" font-size="14.00" fill="#666666">[varchar]</text>
<polygon fill="none" stroke="black" points="307.34,-289.6 307.34,-320.4 561.02,-320.4 561.02,-289.6 307.34,-289.6"/>
<text text-anchor="start" x="314.34" y="-301.8" font-family="Arial" font-size="14.00">created_at </text>
<text text-anchor="start" x="384.38" y="-301.8" font-family="Arial" font-size="14.00" fill="#666666">[timestamp with time zone]</text>
<polygon fill="none" stroke="black" points="307.34,-258.8 307.34,-289.6 561.02,-289.6 561.02,-258.8 307.34,-258.8"/>
<text text-anchor="start" x="314.34" y="-271" font-family="Arial" font-size="14.00">updated_at </text>
<text text-anchor="start" x="388.29" y="-271" font-family="Arial" font-size="14.00" fill="#666666">[timestamp with time zone]</text>
<polygon fill="none" stroke="black" points="307.34,-228 307.34,-258.8 561.02,-258.8 561.02,-228 307.34,-228"/>
<text text-anchor="start" x="314.34" y="-240.2" font-family="Arial" font-size="14.00">role </text>
<text text-anchor="start" x="341.57" y="-240.2" font-family="Arial" font-size="14.00" fill="#666666">[text]</text>
<polygon fill="none" stroke="black" points="307.34,-197.2 307.34,-228 561.02,-228 561.02,-197.2 307.34,-197.2"/>
<text text-anchor="start" x="314.34" y="-209.4" font-family="Arial" font-size="14.00">gender </text>
<text text-anchor="start" x="361.82" y="-209.4" font-family="Arial" font-size="14.00" fill="#666666">[text]</text>
<polygon fill="none" stroke="black" points="307.34,-166.4 307.34,-197.2 561.02,-197.2 561.02,-166.4 307.34,-166.4"/>
<text text-anchor="start" x="314.34" y="-178.6" font-family="Arial" font-size="14.00">birth_date </text>
<text text-anchor="start" x="380.49" y="-178.6" font-family="Arial" font-size="14.00" fill="#666666">[date]</text>
<polygon fill="none" stroke="black" points="307.34,-135.6 307.34,-166.4 561.02,-166.4 561.02,-135.6 307.34,-135.6"/>
<text text-anchor="start" x="314.34" y="-147.8" font-family="Arial" font-size="14.00">school_name </text>
<text text-anchor="start" x="401.5" y="-147.8" font-family="Arial" font-size="14.00" fill="#666666">[text]</text>
<polygon fill="none" stroke="black" points="307.34,-104.8 307.34,-135.6 561.02,-135.6 561.02,-104.8 307.34,-104.8"/>
<text text-anchor="start" x="314.34" y="-117" font-family="Arial" font-size="14.00">class_level </text>
<text text-anchor="start" x="386.7" y="-117" font-family="Arial" font-size="14.00" fill="#666666">[text]</text>
<polygon fill="none" stroke="black" points="307.34,-74 307.34,-104.8 561.02,-104.8 561.02,-74 307.34,-74"/>
<text text-anchor="start" x="314.34" y="-86.2" font-family="Arial" font-size="14.00">bio </text>
<text text-anchor="start" x="336.91" y="-86.2" font-family="Arial" font-size="14.00" fill="#666666">[text]</text>
<polygon fill="none" stroke="black" points="307.34,-43.2 307.34,-74 561.02,-74 561.02,-43.2 307.34,-43.2"/>
<text text-anchor="start" x="314.34" y="-55.4" font-family="Arial" font-size="14.00">theme_preference </text>
<text text-anchor="start" x="431.85" y="-55.4" font-family="Arial" font-size="14.00" fill="#666666">[varchar(10)]</text>
</g>
<!-- public.mentorship_listings&#45;&gt;public.profiles -->
<g id="edge3" class="edge">
<title>public.mentorship_listings:author_id&#45;&gt;public.profiles:id</title>
<path fill="none" stroke="black" d="M610.44,-1081.69C862.87,-1066.49 822.29,-489.8 562.02,-489.8"/>
<polygon fill="black" stroke="black" points="610.5,-1081.69 600.37,-1077.49 605.17,-1081.85 600.84,-1081.98 600.84,-1081.98 600.84,-1081.98 605.17,-1081.85 600.64,-1086.49 610.5,-1081.69"/>
<text text-anchor="start" x="607.17" y="-1092" font-family="Arial" font-size="10.00">FOREIGN KEY (author_id) REFERENCES profiles(id) ON DELETE CASCADE</text>
</g>
<!-- public.mentorship_relations -->
<g id="node2" class="node">
<title>public.mentorship_relations</title>
<polygon fill="#efefef" stroke="none" points="43.2,-1628 43.2,-1663.6 383.15,-1663.6 383.15,-1628 43.2,-1628"/>
<polygon fill="none" stroke="black" points="43.2,-1628 43.2,-1663.6 383.15,-1663.6 383.15,-1628 43.2,-1628"/>
<text text-anchor="start" x="50.2" y="-1641.4" font-family="Arial Bold" font-size="18.00">public.mentorship_relations</text>
<text text-anchor="start" x="251.66" y="-1641.4" font-family="Arial" font-size="14.00">    </text>
<text text-anchor="start" x="282.78" y="-1641.4" font-family="Arial" font-size="14.00" fill="#666666">[BASE TABLE]</text>
<polygon fill="none" stroke="black" points="43.2,-1597.2 43.2,-1628 383.15,-1628 383.15,-1597.2 43.2,-1597.2"/>
<text text-anchor="start" x="50.2" y="-1609.4" font-family="Arial" font-size="14.00">id </text>
<text text-anchor="start" x="64.99" y="-1609.4" font-family="Arial" font-size="14.00" fill="#666666">[uuid]</text>
<polygon fill="none" stroke="black" points="43.2,-1566.4 43.2,-1597.2 383.15,-1597.2 383.15,-1566.4 43.2,-1566.4"/>
<text text-anchor="start" x="50.2" y="-1578.6" font-family="Arial" font-size="14.00">mentor_id </text>
<text text-anchor="start" x="116.34" y="-1578.6" font-family="Arial" font-size="14.00" fill="#666666">[uuid]</text>
<polygon fill="none" stroke="black" points="43.2,-1535.6 43.2,-1566.4 383.15,-1566.4 383.15,-1535.6 43.2,-1535.6"/>
<text text-anchor="start" x="50.2" y="-1547.8" font-family="Arial" font-size="14.00">mentee_id </text>
<text text-anchor="start" x="119.47" y="-1547.8" font-family="Arial" font-size="14.00" fill="#666666">[uuid]</text>
<polygon fill="none" stroke="black" points="43.2,-1504.8 43.2,-1535.6 383.15,-1535.6 383.15,-1504.8 43.2,-1504.8"/>
<text text-anchor="start" x="50.2" y="-1517" font-family="Arial" font-size="14.00">original_request_id </text>
<text text-anchor="start" x="172.39" y="-1517" font-family="Arial" font-size="14.00" fill="#666666">[uuid]</text>
<polygon fill="none" stroke="black" points="43.2,-1474 43.2,-1504.8 383.15,-1504.8 383.15,-1474 43.2,-1474"/>
<text text-anchor="start" x="50.2" y="-1486.2" font-family="Arial" font-size="14.00">original_listing_id </text>
<text text-anchor="start" x="161.49" y="-1486.2" font-family="Arial" font-size="14.00" fill="#666666">[uuid]</text>
<polygon fill="none" stroke="black" points="43.2,-1443.2 43.2,-1474 383.15,-1474 383.15,-1443.2 43.2,-1443.2"/>
<text text-anchor="start" x="50.2" y="-1455.4" font-family="Arial" font-size="14.00">status </text>
<text text-anchor="start" x="91.44" y="-1455.4" font-family="Arial" font-size="14.00" fill="#666666">[text]</text>
<polygon fill="none" stroke="black" points="43.2,-1412.4 43.2,-1443.2 383.15,-1443.2 383.15,-1412.4 43.2,-1412.4"/>
<text text-anchor="start" x="50.2" y="-1424.6" font-family="Arial" font-size="14.00">ended_reason </text>
<text text-anchor="start" x="143.61" y="-1424.6" font-family="Arial" font-size="14.00" fill="#666666">[text]</text>
<polygon fill="none" stroke="black" points="43.2,-1381.6 43.2,-1412.4 383.15,-1412.4 383.15,-1381.6 43.2,-1381.6"/>
<text text-anchor="start" x="50.2" y="-1393.8" font-family="Arial" font-size="14.00">materials_submitted </text>
<text text-anchor="start" x="179.37" y="-1393.8" font-family="Arial" font-size="14.00" fill="#666666">[integer]</text>
<polygon fill="none" stroke="black" points="43.2,-1350.8 43.2,-1381.6 383.15,-1381.6 383.15,-1350.8 43.2,-1350.8"/>
<text text-anchor="start" x="50.2" y="-1363" font-family="Arial" font-size="14.00">materials_corrected </text>
<text text-anchor="start" x="177.03" y="-1363" font-family="Arial" font-size="14.00" fill="#666666">[integer]</text>
<polygon fill="none" stroke="black" points="43.2,-1320 43.2,-1350.8 383.15,-1350.8 383.15,-1320 43.2,-1320"/>
<text text-anchor="start" x="50.2" y="-1332.2" font-family="Arial" font-size="14.00">started_at </text>
<text text-anchor="start" x="116.35" y="-1332.2" font-family="Arial" font-size="14.00" fill="#666666">[timestamp with time zone]</text>
<polygon fill="none" stroke="black" points="43.2,-1289.2 43.2,-1320 383.15,-1320 383.15,-1289.2 43.2,-1289.2"/>
<text text-anchor="start" x="50.2" y="-1301.4" font-family="Arial" font-size="14.00">ended_at </text>
<text text-anchor="start" x="112.48" y="-1301.4" font-family="Arial" font-size="14.00" fill="#666666">[timestamp with time zone]</text>
</g>
<!-- public.mentorship_relations&#45;&gt;public.mentorship_listings -->
<g id="edge1" class="edge">
<title>public.mentorship_relations:original_listing_id&#45;&gt;public.mentorship_listings:id</title>
<path fill="none" stroke="black" d="M394.19,-1486.71C435.05,-1462.81 413.02,-1286.58 383.15,-1246 351.67,-1203.22 300.8,-1252.68 269.18,-1210 243.47,-1175.28 224.98,-1112.8 268.18,-1112.8"/>
<polygon fill="black" stroke="black" points="394.13,-1486.73 383.31,-1484.97 388.98,-1488.11 384.8,-1489.23 384.8,-1489.23 384.8,-1489.23 388.98,-1488.11 385.64,-1493.66 394.13,-1486.73"/>
<text text-anchor="start" x="391.15" y="-1499.4" font-family="Arial" font-size="10.00">FOREIGN KEY (original_listing_id) REFERENCES mentorship_listings(id)</text>
</g>
<!-- public.mentorship_requests -->
<g id="node3" class="node">
<title>public.mentorship_requests</title>
<polygon fill="#efefef" stroke="none" points="487.7,-1612.6 487.7,-1648.2 824.65,-1648.2 824.65,-1612.6 487.7,-1612.6"/>
<polygon fill="none" stroke="black" points="487.7,-1612.6 487.7,-1648.2 824.65,-1648.2 824.65,-1612.6 487.7,-1612.6"/>
<text text-anchor="start" x="494.7" y="-1626" font-family="Arial Bold" font-size="18.00">public.mentorship_requests</text>
<text text-anchor="start" x="693.16" y="-1626" font-family="Arial" font-size="14.00">    </text>
<text text-anchor="start" x="724.28" y="-1626" font-family="Arial" font-size="14.00" fill="#666666">[BASE TABLE]</text>
<polygon fill="none" stroke="black" points="487.7,-1581.8 487.7,-1612.6 824.65,-1612.6 824.65,-1581.8 487.7,-1581.8"/>
<text text-anchor="start" x="494.7" y="-1594" font-family="Arial" font-size="14.00">id </text>
<text text-anchor="start" x="509.48" y="-1594" font-family="Arial" font-size="14.00" fill="#666666">[uuid]</text>
<polygon fill="none" stroke="black" points="487.7,-1551 487.7,-1581.8 824.65,-1581.8 824.65,-1551 487.7,-1551"/>
<text text-anchor="start" x="494.7" y="-1563.2" font-family="Arial" font-size="14.00">listing_id </text>
<text text-anchor="start" x="553.06" y="-1563.2" font-family="Arial" font-size="14.00" fill="#666666">[uuid]</text>
<polygon fill="none" stroke="black" points="487.7,-1520.2 487.7,-1551 824.65,-1551 824.65,-1520.2 487.7,-1520.2"/>
<text text-anchor="start" x="494.7" y="-1532.4" font-family="Arial" font-size="14.00">requester_id </text>
<text text-anchor="start" x="576.42" y="-1532.4" font-family="Arial" font-size="14.00" fill="#666666">[uuid]</text>
<polygon fill="none" stroke="black" points="487.7,-1489.4 487.7,-1520.2 824.65,-1520.2 824.65,-1489.4 487.7,-1489.4"/>
<text text-anchor="start" x="494.7" y="-1501.6" font-family="Arial" font-size="14.00">target_id </text>
<text text-anchor="start" x="553.07" y="-1501.6" font-family="Arial" font-size="14.00" fill="#666666">[uuid]</text>
<polygon fill="none" stroke="black" points="487.7,-1458.6 487.7,-1489.4 824.65,-1489.4 824.65,-1458.6 487.7,-1458.6"/>
<text text-anchor="start" x="494.7" y="-1470.8" font-family="Arial" font-size="14.00">message </text>
<text text-anchor="start" x="555.39" y="-1470.8" font-family="Arial" font-size="14.00" fill="#666666">[text]</text>
<polygon fill="none" stroke="black" points="487.7,-1427.8 487.7,-1458.6 824.65,-1458.6 824.65,-1427.8 487.7,-1427.8"/>
<text text-anchor="start" x="494.7" y="-1440" font-family="Arial" font-size="14.00">response_message </text>
<text text-anchor="start" x="620.77" y="-1440" font-family="Arial" font-size="14.00" fill="#666666">[text]</text>
<polygon fill="none" stroke="black" points="487.7,-1397 487.7,-1427.8 824.65,-1427.8 824.65,-1397 487.7,-1397"/>
<text text-anchor="start" x="494.7" y="-1409.2" font-family="Arial" font-size="14.00">status </text>
<text text-anchor="start" x="535.94" y="-1409.2" font-family="Arial" font-size="14.00" fill="#666666">[text]</text>
<polygon fill="none" stroke="black" points="487.7,-1366.2 487.7,-1397 824.65,-1397 824.65,-1366.2 487.7,-1366.2"/>
<text text-anchor="start" x="494.7" y="-1378.4" font-family="Arial" font-size="14.00">responded_at </text>
<text text-anchor="start" x="584.22" y="-1378.4" font-family="Arial" font-size="14.00" fill="#666666">[timestamp with time zone]</text>
<polygon fill="none" stroke="black" points="487.7,-1335.4 487.7,-1366.2 824.65,-1366.2 824.65,-1335.4 487.7,-1335.4"/>
<text text-anchor="start" x="494.7" y="-1347.6" font-family="Arial" font-size="14.00">created_at </text>
<text text-anchor="start" x="564.75" y="-1347.6" font-family="Arial" font-size="14.00" fill="#666666">[timestamp with time zone]</text>
<polygon fill="none" stroke="black" points="487.7,-1304.6 487.7,-1335.4 824.65,-1335.4 824.65,-1304.6 487.7,-1304.6"/>
<text text-anchor="start" x="494.7" y="-1316.8" font-family="Arial" font-size="14.00">expires_at </text>
<text text-anchor="start" x="563.18" y="-1316.8" font-family="Arial" font-size="14.00" fill="#666666">[timestamp with time zone]</text>
</g>
<!-- public.mentorship_requests&#45;&gt;public.mentorship_listings -->
<g id="edge2" class="edge">
<title>public.mentorship_requests:listing_id&#45;&gt;public.mentorship_listings:id</title>
<path fill="none" stroke="black" d="M476.8,-1564.4C422.32,-1540.78 453,-1315.42 487.7,-1261.4 517.18,-1215.5 569.52,-1255.8 599.17,-1210 622.65,-1173.73 643.37,-1112.8 600.17,-1112.8"/>
<polygon fill="black" stroke="black" points="476.57,-1564.35 485.48,-1570.74 481.8,-1565.41 486.04,-1566.27 486.04,-1566.27 486.04,-1566.27 481.8,-1565.41 487.26,-1561.92 476.57,-1564.35"/>
<text text-anchor="start" x="493.7" y="-1576.4" font-family="Arial" font-size="10.00">FOREIGN KEY (listing_id) REFERENCES mentorship_listings(id) ON DELETE CASCADE</text>
</g>
</g>
</svg>
