<?xml version="1.0" encoding="UTF-8" standalone="no"?>
<!DOCTYPE svg PUBLIC "-//W3C//DTD SVG 1.1//EN"
 "http://www.w3.org/Graphics/SVG/1.1/DTD/svg11.dtd">
<!-- Generated by graphviz version 12.1.2 (20240928.0832)
 -->
<!-- Title: public.material_access_grants Pages: 1 -->
<svg width="904pt" height="1680pt"
 viewBox="0.00 0.00 904.15 1680.00" xmlns="http://www.w3.org/2000/svg" xmlns:xlink="http://www.w3.org/1999/xlink">
<g id="graph0" class="graph" transform="scale(1 1) rotate(0) translate(4 1676)">
<title>public.material_access_grants</title>
<polygon fill="white" stroke="none" points="-4,4 -4,-1676 900.15,-1676 900.15,4 -4,4"/>
<!-- public.material_access_grants -->
<g id="node1" class="node">
<title>public.material_access_grants</title>
<polygon fill="#efefef" stroke="none" points="260.62,-1590.2 260.62,-1625.8 615.52,-1625.8 615.52,-1590.2 260.62,-1590.2"/>
<polygon fill="none" stroke="black" points="260.62,-1590.2 260.62,-1625.8 615.52,-1625.8 615.52,-1590.2 260.62,-1590.2"/>
<text text-anchor="start" x="267.62" y="-1603.6" font-family="Arial Bold" font-size="18.00">public.material_access_grants</text>
<text text-anchor="start" x="484.03" y="-1603.6" font-family="Arial" font-size="14.00">    </text>
<text text-anchor="start" x="515.15" y="-1603.6" font-family="Arial" font-size="14.00" fill="#666666">[BASE TABLE]</text>
<polygon fill="none" stroke="black" points="260.62,-1559.4 260.62,-1590.2 615.52,-1590.2 615.52,-1559.4 260.62,-1559.4"/>
<text text-anchor="start" x="267.62" y="-1571.6" font-family="Arial" font-size="14.00">id </text>
<text text-anchor="start" x="282.41" y="-1571.6" font-family="Arial" font-size="14.00" fill="#666666">[uuid]</text>
<polygon fill="none" stroke="black" points="260.62,-1528.6 260.62,-1559.4 615.52,-1559.4 615.52,-1528.6 260.62,-1528.6"/>
<text text-anchor="start" x="267.62" y="-1540.8" font-family="Arial" font-size="14.00">user_id </text>
<text text-anchor="start" x="317.43" y="-1540.8" font-family="Arial" font-size="14.00" fill="#666666">[uuid]</text>
<polygon fill="none" stroke="black" points="260.62,-1497.8 260.62,-1528.6 615.52,-1528.6 615.52,-1497.8 260.62,-1497.8"/>
<text text-anchor="start" x="267.62" y="-1510" font-family="Arial" font-size="14.00">area_id </text>
<text text-anchor="start" x="318.21" y="-1510" font-family="Arial" font-size="14.00" fill="#666666">[bigint]</text>
<polygon fill="none" stroke="black" points="260.62,-1467 260.62,-1497.8 615.52,-1497.8 615.52,-1467 260.62,-1467"/>
<text text-anchor="start" x="267.62" y="-1479.2" font-family="Arial" font-size="14.00">status </text>
<text text-anchor="start" x="308.86" y="-1479.2" font-family="Arial" font-size="14.00" fill="#666666">[text]</text>
<polygon fill="none" stroke="black" points="260.62,-1436.2 260.62,-1467 615.52,-1467 615.52,-1436.2 260.62,-1436.2"/>
<text text-anchor="start" x="267.62" y="-1448.4" font-family="Arial" font-size="14.00">valid_from </text>
<text text-anchor="start" x="336.09" y="-1448.4" font-family="Arial" font-size="14.00" fill="#666666">[timestamp with time zone]</text>
<polygon fill="none" stroke="black" points="260.62,-1405.4 260.62,-1436.2 615.52,-1436.2 615.52,-1405.4 260.62,-1405.4"/>
<text text-anchor="start" x="267.62" y="-1417.6" font-family="Arial" font-size="14.00">valid_until </text>
<text text-anchor="start" x="333.77" y="-1417.6" font-family="Arial" font-size="14.00" fill="#666666">[timestamp with time zone]</text>
<polygon fill="none" stroke="black" points="260.62,-1374.6 260.62,-1405.4 615.52,-1405.4 615.52,-1374.6 260.62,-1374.6"/>
<text text-anchor="start" x="267.62" y="-1386.8" font-family="Arial" font-size="14.00">source_kind </text>
<text text-anchor="start" x="347" y="-1386.8" font-family="Arial" font-size="14.00" fill="#666666">[text]</text>
<polygon fill="none" stroke="black" points="260.62,-1343.8 260.62,-1374.6 615.52,-1374.6 615.52,-1343.8 260.62,-1343.8"/>
<text text-anchor="start" x="267.62" y="-1356" font-family="Arial" font-size="14.00">source_id </text>
<text text-anchor="start" x="332.21" y="-1356" font-family="Arial" font-size="14.00" fill="#666666">[uuid]</text>
<polygon fill="none" stroke="black" points="260.62,-1313 260.62,-1343.8 615.52,-1343.8 615.52,-1313 260.62,-1313"/>
<text text-anchor="start" x="267.62" y="-1325.2" font-family="Arial" font-size="14.00">created_at </text>
<text text-anchor="start" x="337.67" y="-1325.2" font-family="Arial" font-size="14.00" fill="#666666">[timestamp with time zone]</text>
<polygon fill="none" stroke="black" points="260.62,-1282.2 260.62,-1313 615.52,-1313 615.52,-1282.2 260.62,-1282.2"/>
<text text-anchor="start" x="267.62" y="-1294.4" font-family="Arial" font-size="14.00">revoked_at </text>
<text text-anchor="start" x="340.78" y="-1294.4" font-family="Arial" font-size="14.00" fill="#666666">[timestamp with time zone]</text>
<polygon fill="none" stroke="black" stroke-width="3" points="259.12,-1280.7 259.12,-1627.3 617.02,-1627.3 617.02,-1280.7 259.12,-1280.7"/>
</g>
<!-- auth.users -->
<g id="node2" class="node">
<title>auth.users</title>
<polygon fill="#efefef" stroke="none" points="60.6,-1121.2 60.6,-1156.8 397.55,-1156.8 397.55,-1121.2 60.6,-1121.2"/>
<polygon fill="none" stroke="black" points="60.6,-1121.2 60.6,-1156.8 397.55,-1156.8 397.55,-1121.2 60.6,-1121.2"/>
<text text-anchor="start" x="130.58" y="-1134.6" font-family="Arial Bold" font-size="18.00">auth.users</text>
<text text-anchor="start" x="203.07" y="-1134.6" font-family="Arial" font-size="14.00">    </text>
<text text-anchor="start" x="234.19" y="-1134.6" font-family="Arial" font-size="14.00" fill="#666666">[BASE TABLE]</text>
<polygon fill="none" stroke="black" points="60.6,-1090.4 60.6,-1121.2 397.55,-1121.2 397.55,-1090.4 60.6,-1090.4"/>
<text text-anchor="start" x="67.6" y="-1102.6" font-family="Arial" font-size="14.00">instance_id </text>
<text text-anchor="start" x="142.31" y="-1102.6" font-family="Arial" font-size="14.00" fill="#666666">[uuid]</text>
<polygon fill="none" stroke="black" points="60.6,-1059.6 60.6,-1090.4 397.55,-1090.4 397.55,-1059.6 60.6,-1059.6"/>
<text text-anchor="start" x="67.6" y="-1071.8" font-family="Arial" font-size="14.00">id </text>
<text text-anchor="start" x="82.38" y="-1071.8" font-family="Arial" font-size="14.00" fill="#666666">[uuid]</text>
<polygon fill="none" stroke="black" points="60.6,-1028.8 60.6,-1059.6 397.55,-1059.6 397.55,-1028.8 60.6,-1028.8"/>
<text text-anchor="start" x="67.6" y="-1041" font-family="Arial" font-size="14.00">aud </text>
<text text-anchor="start" x="94.84" y="-1041" font-family="Arial" font-size="14.00" fill="#666666">[varchar(255)]</text>
<polygon fill="none" stroke="black" points="60.6,-998 60.6,-1028.8 397.55,-1028.8 397.55,-998 60.6,-998"/>
<text text-anchor="start" x="67.6" y="-1010.2" font-family="Arial" font-size="14.00">role </text>
<text text-anchor="start" x="94.83" y="-1010.2" font-family="Arial" font-size="14.00" fill="#666666">[varchar(255)]</text>
<polygon fill="none" stroke="black" points="60.6,-967.2 60.6,-998 397.55,-998 397.55,-967.2 60.6,-967.2"/>
<text text-anchor="start" x="67.6" y="-979.4" font-family="Arial" font-size="14.00">email </text>
<text text-anchor="start" x="104.94" y="-979.4" font-family="Arial" font-size="14.00" fill="#666666">[varchar(255)]</text>
<polygon fill="none" stroke="black" points="60.6,-936.4 60.6,-967.2 397.55,-967.2 397.55,-936.4 60.6,-936.4"/>
<text text-anchor="start" x="67.6" y="-948.6" font-family="Arial" font-size="14.00">encrypted_password </text>
<text text-anchor="start" x="200.67" y="-948.6" font-family="Arial" font-size="14.00" fill="#666666">[varchar(255)]</text>
<polygon fill="none" stroke="black" points="60.6,-905.6 60.6,-936.4 397.55,-936.4 397.55,-905.6 60.6,-905.6"/>
<text text-anchor="start" x="67.6" y="-917.8" font-family="Arial" font-size="14.00">email_confirmed_at </text>
<text text-anchor="start" x="193.66" y="-917.8" font-family="Arial" font-size="14.00" fill="#666666">[timestamp with time zone]</text>
<polygon fill="none" stroke="black" points="60.6,-874.8 60.6,-905.6 397.55,-905.6 397.55,-874.8 60.6,-874.8"/>
<text text-anchor="start" x="67.6" y="-887" font-family="Arial" font-size="14.00">invited_at </text>
<text text-anchor="start" x="131.42" y="-887" font-family="Arial" font-size="14.00" fill="#666666">[timestamp with time zone]</text>
<polygon fill="none" stroke="black" points="60.6,-844 60.6,-874.8 397.55,-874.8 397.55,-844 60.6,-844"/>
<text text-anchor="start" x="67.6" y="-856.2" font-family="Arial" font-size="14.00">confirmation_token </text>
<text text-anchor="start" x="189.77" y="-856.2" font-family="Arial" font-size="14.00" fill="#666666">[varchar(255)]</text>
<polygon fill="none" stroke="black" points="60.6,-813.2 60.6,-844 397.55,-844 397.55,-813.2 60.6,-813.2"/>
<text text-anchor="start" x="67.6" y="-825.4" font-family="Arial" font-size="14.00">confirmation_sent_at </text>
<text text-anchor="start" x="201.45" y="-825.4" font-family="Arial" font-size="14.00" fill="#666666">[timestamp with time zone]</text>
<polygon fill="none" stroke="black" points="60.6,-782.4 60.6,-813.2 397.55,-813.2 397.55,-782.4 60.6,-782.4"/>
<text text-anchor="start" x="67.6" y="-794.6" font-family="Arial" font-size="14.00">recovery_token </text>
<text text-anchor="start" x="167.2" y="-794.6" font-family="Arial" font-size="14.00" fill="#666666">[varchar(255)]</text>
<polygon fill="none" stroke="black" points="60.6,-751.6 60.6,-782.4 397.55,-782.4 397.55,-751.6 60.6,-751.6"/>
<text text-anchor="start" x="67.6" y="-763.8" font-family="Arial" font-size="14.00">recovery_sent_at </text>
<text text-anchor="start" x="178.88" y="-763.8" font-family="Arial" font-size="14.00" fill="#666666">[timestamp with time zone]</text>
<polygon fill="none" stroke="black" points="60.6,-720.8 60.6,-751.6 397.55,-751.6 397.55,-720.8 60.6,-720.8"/>
<text text-anchor="start" x="67.6" y="-733" font-family="Arial" font-size="14.00">email_change_token_new </text>
<text text-anchor="start" x="234.16" y="-733" font-family="Arial" font-size="14.00" fill="#666666">[varchar(255)]</text>
<polygon fill="none" stroke="black" points="60.6,-690 60.6,-720.8 397.55,-720.8 397.55,-690 60.6,-690"/>
<text text-anchor="start" x="67.6" y="-702.2" font-family="Arial" font-size="14.00">email_change </text>
<text text-anchor="start" x="158.66" y="-702.2" font-family="Arial" font-size="14.00" fill="#666666">[varchar(255)]</text>
<polygon fill="none" stroke="black" points="60.6,-659.2 60.6,-690 397.55,-690 397.55,-659.2 60.6,-659.2"/>
<text text-anchor="start" x="67.6" y="-671.4" font-family="Arial" font-size="14.00">email_change_sent_at </text>
<text text-anchor="start" x="212.37" y="-671.4" font-family="Arial" font-size="14.00" fill="#666666">[timestamp with time zone]</text>
<polygon fill="none" stroke="black" points="60.6,-628.4 60.6,-659.2 397.55,-659.2 397.55,-628.4 60.6,-628.4"/>
<text text-anchor="start" x="67.6" y="-640.6" font-family="Arial" font-size="14.00">last_sign_in_at </text>
<text text-anchor="start" x="164.89" y="-640.6" font-family="Arial" font-size="14.00" fill="#666666">[timestamp with time zone]</text>
<polygon fill="none" stroke="black" points="60.6,-597.6 60.6,-628.4 397.55,-628.4 397.55,-597.6 60.6,-597.6"/>
<text text-anchor="start" x="67.6" y="-609.8" font-family="Arial" font-size="14.00">raw_app_meta_data </text>
<text text-anchor="start" x="199.13" y="-609.8" font-family="Arial" font-size="14.00" fill="#666666">[jsonb]</text>
<polygon fill="none" stroke="black" points="60.6,-566.8 60.6,-597.6 397.55,-597.6 397.55,-566.8 60.6,-566.8"/>
<text text-anchor="start" x="67.6" y="-579" font-family="Arial" font-size="14.00">raw_user_meta_data </text>
<text text-anchor="start" x="203.01" y="-579" font-family="Arial" font-size="14.00" fill="#666666">[jsonb]</text>
<polygon fill="none" stroke="black" points="60.6,-536 60.6,-566.8 397.55,-566.8 397.55,-536 60.6,-536"/>
<text text-anchor="start" x="67.6" y="-548.2" font-family="Arial" font-size="14.00">is_super_admin </text>
<text text-anchor="start" x="170.32" y="-548.2" font-family="Arial" font-size="14.00" fill="#666666">[boolean]</text>
<polygon fill="none" stroke="black" points="60.6,-505.2 60.6,-536 397.55,-536 397.55,-505.2 60.6,-505.2"/>
<text text-anchor="start" x="67.6" y="-517.4" font-family="Arial" font-size="14.00">created_at </text>
<text text-anchor="start" x="137.64" y="-517.4" font-family="Arial" font-size="14.00" fill="#666666">[timestamp with time zone]</text>
<polygon fill="none" stroke="black" points="60.6,-474.4 60.6,-505.2 397.55,-505.2 397.55,-474.4 60.6,-474.4"/>
<text text-anchor="start" x="67.6" y="-486.6" font-family="Arial" font-size="14.00">updated_at </text>
<text text-anchor="start" x="141.55" y="-486.6" font-family="Arial" font-size="14.00" fill="#666666">[timestamp with time zone]</text>
<polygon fill="none" stroke="black" points="60.6,-443.6 60.6,-474.4 397.55,-474.4 397.55,-443.6 60.6,-443.6"/>
<text text-anchor="start" x="67.6" y="-455.8" font-family="Arial" font-size="14.00">phone </text>
<text text-anchor="start" x="110.42" y="-455.8" font-family="Arial" font-size="14.00" fill="#666666">[text]</text>
<polygon fill="none" stroke="black" points="60.6,-412.8 60.6,-443.6 397.55,-443.6 397.55,-412.8 60.6,-412.8"/>
<text text-anchor="start" x="67.6" y="-425" font-family="Arial" font-size="14.00">phone_confirmed_at </text>
<text text-anchor="start" x="199.13" y="-425" font-family="Arial" font-size="14.00" fill="#666666">[timestamp with time zone]</text>
<polygon fill="none" stroke="black" points="60.6,-382 60.6,-412.8 397.55,-412.8 397.55,-382 60.6,-382"/>
<text text-anchor="start" x="67.6" y="-394.2" font-family="Arial" font-size="14.00">phone_change </text>
<text text-anchor="start" x="164.13" y="-394.2" font-family="Arial" font-size="14.00" fill="#666666">[text]</text>
<polygon fill="none" stroke="black" points="60.6,-351.2 60.6,-382 397.55,-382 397.55,-351.2 60.6,-351.2"/>
<text text-anchor="start" x="67.6" y="-363.4" font-family="Arial" font-size="14.00">phone_change_token </text>
<text text-anchor="start" x="206.17" y="-363.4" font-family="Arial" font-size="14.00" fill="#666666">[varchar(255)]</text>
<polygon fill="none" stroke="black" points="60.6,-320.4 60.6,-351.2 397.55,-351.2 397.55,-320.4 60.6,-320.4"/>
<text text-anchor="start" x="67.6" y="-332.6" font-family="Arial" font-size="14.00">phone_change_sent_at </text>
<text text-anchor="start" x="217.84" y="-332.6" font-family="Arial" font-size="14.00" fill="#666666">[timestamp with time zone]</text>
<polygon fill="none" stroke="black" points="60.6,-289.6 60.6,-320.4 397.55,-320.4 397.55,-289.6 60.6,-289.6"/>
<text text-anchor="start" x="67.6" y="-301.8" font-family="Arial" font-size="14.00">confirmed_at </text>
<text text-anchor="start" x="152.42" y="-301.8" font-family="Arial" font-size="14.00" fill="#666666">[timestamp with time zone]</text>
<polygon fill="none" stroke="black" points="60.6,-258.8 60.6,-289.6 397.55,-289.6 397.55,-258.8 60.6,-258.8"/>
<text text-anchor="start" x="67.6" y="-271" font-family="Arial" font-size="14.00">email_change_token_current </text>
<text text-anchor="start" x="252.05" y="-271" font-family="Arial" font-size="14.00" fill="#666666">[varchar(255)]</text>
<polygon fill="none" stroke="black" points="60.6,-228 60.6,-258.8 397.55,-258.8 397.55,-228 60.6,-228"/>
<text text-anchor="start" x="67.6" y="-240.2" font-family="Arial" font-size="14.00">email_change_confirm_status </text>
<text text-anchor="start" x="257.48" y="-240.2" font-family="Arial" font-size="14.00" fill="#666666">[smallint]</text>
<polygon fill="none" stroke="black" points="60.6,-197.2 60.6,-228 397.55,-228 397.55,-197.2 60.6,-197.2"/>
<text text-anchor="start" x="67.6" y="-209.4" font-family="Arial" font-size="14.00">banned_until </text>
<text text-anchor="start" x="151.67" y="-209.4" font-family="Arial" font-size="14.00" fill="#666666">[timestamp with time zone]</text>
<polygon fill="none" stroke="black" points="60.6,-166.4 60.6,-197.2 397.55,-197.2 397.55,-166.4 60.6,-166.4"/>
<text text-anchor="start" x="67.6" y="-178.6" font-family="Arial" font-size="14.00">reauthentication_token </text>
<text text-anchor="start" x="213.15" y="-178.6" font-family="Arial" font-size="14.00" fill="#666666">[varchar(255)]</text>
<polygon fill="none" stroke="black" points="60.6,-135.6 60.6,-166.4 397.55,-166.4 397.55,-135.6 60.6,-135.6"/>
<text text-anchor="start" x="67.6" y="-147.8" font-family="Arial" font-size="14.00">reauthentication_sent_at </text>
<text text-anchor="start" x="224.82" y="-147.8" font-family="Arial" font-size="14.00" fill="#666666">[timestamp with time zone]</text>
<polygon fill="none" stroke="black" points="60.6,-104.8 60.6,-135.6 397.55,-135.6 397.55,-104.8 60.6,-104.8"/>
<text text-anchor="start" x="67.6" y="-117" font-family="Arial" font-size="14.00">is_sso_user </text>
<text text-anchor="start" x="146.19" y="-117" font-family="Arial" font-size="14.00" fill="#666666">[boolean]</text>
<polygon fill="none" stroke="black" points="60.6,-74 60.6,-104.8 397.55,-104.8 397.55,-74 60.6,-74"/>
<text text-anchor="start" x="67.6" y="-86.2" font-family="Arial" font-size="14.00">deleted_at </text>
<text text-anchor="start" x="136.88" y="-86.2" font-family="Arial" font-size="14.00" fill="#666666">[timestamp with time zone]</text>
<polygon fill="none" stroke="black" points="60.6,-43.2 60.6,-74 397.55,-74 397.55,-43.2 60.6,-43.2"/>
<text text-anchor="start" x="67.6" y="-55.4" font-family="Arial" font-size="14.00">is_anonymous </text>
<text text-anchor="start" x="161.76" y="-55.4" font-family="Arial" font-size="14.00" fill="#666666">[boolean]</text>
</g>
<!-- public.material_access_grants&#45;&gt;auth.users -->
<g id="edge1" class="edge">
<title>public.material_access_grants:user_id&#45;&gt;auth.users:id</title>
<path fill="none" stroke="black" d="M249.19,-1543.59C125.61,-1533.53 179.06,-1341.41 260.62,-1236 299.12,-1186.23 358.92,-1249.68 397.55,-1200 431.65,-1156.14 454.1,-1075 398.55,-1075"/>
<polygon fill="black" stroke="black" points="249.29,-1543.59 259.11,-1548.48 254.62,-1543.8 258.95,-1543.97 258.95,-1543.97 258.95,-1543.97 254.62,-1543.8 259.46,-1539.49 249.29,-1543.59"/>
<text text-anchor="start" x="7" y="-1554" font-family="Arial" font-size="10.00">FOREIGN KEY (user_id) REFERENCES auth.users(id)</text>
</g>
<!-- public.material_areas -->
<g id="node3" class="node">
<title>public.material_areas</title>
<polygon fill="#efefef" stroke="none" points="501.61,-643.8 501.61,-679.4 794.53,-679.4 794.53,-643.8 501.61,-643.8"/>
<polygon fill="none" stroke="black" points="501.61,-643.8 501.61,-679.4 794.53,-679.4 794.53,-643.8 501.61,-643.8"/>
<text text-anchor="start" x="508.61" y="-657.2" font-family="Arial Bold" font-size="18.00">public.material_areas</text>
<text text-anchor="start" x="663.04" y="-657.2" font-family="Arial" font-size="14.00">    </text>
<text text-anchor="start" x="694.16" y="-657.2" font-family="Arial" font-size="14.00" fill="#666666">[BASE TABLE]</text>
<polygon fill="none" stroke="black" points="501.61,-613 501.61,-643.8 794.53,-643.8 794.53,-613 501.61,-613"/>
<text text-anchor="start" x="508.61" y="-625.2" font-family="Arial" font-size="14.00">id </text>
<text text-anchor="start" x="523.4" y="-625.2" font-family="Arial" font-size="14.00" fill="#666666">[bigint]</text>
<polygon fill="none" stroke="black" points="501.61,-582.2 501.61,-613 794.53,-613 794.53,-582.2 501.61,-582.2"/>
<text text-anchor="start" x="508.61" y="-594.4" font-family="Arial" font-size="14.00">key </text>
<text text-anchor="start" x="534.29" y="-594.4" font-family="Arial" font-size="14.00" fill="#666666">[text]</text>
<polygon fill="none" stroke="black" points="501.61,-551.4 501.61,-582.2 794.53,-582.2 794.53,-551.4 501.61,-551.4"/>
<text text-anchor="start" x="508.61" y="-563.6" font-family="Arial" font-size="14.00">label </text>
<text text-anchor="start" x="542.08" y="-563.6" font-family="Arial" font-size="14.00" fill="#666666">[text]</text>
<polygon fill="none" stroke="black" points="501.61,-520.6 501.61,-551.4 794.53,-551.4 794.53,-520.6 501.61,-520.6"/>
<text text-anchor="start" x="508.61" y="-532.8" font-family="Arial" font-size="14.00">created_at </text>
<text text-anchor="start" x="578.66" y="-532.8" font-family="Arial" font-size="14.00" fill="#666666">[timestamp with time zone]</text>
</g>
<!-- public.material_access_grants&#45;&gt;public.material_areas -->
<g id="edge2" class="edge">
<title>public.material_access_grants:area_id&#45;&gt;public.material_areas:id</title>
<path fill="none" stroke="black" d="M626.84,-1512.3C796.05,-1480.67 305.99,-628.4 500.61,-628.4"/>
<polygon fill="black" stroke="black" points="626.82,-1512.3 616.46,-1508.69 621.5,-1512.76 617.19,-1513.14 617.19,-1513.14 617.19,-1513.14 621.5,-1512.76 617.25,-1517.65 626.82,-1512.3"/>
<text text-anchor="start" x="623.52" y="-1523.2" font-family="Arial" font-size="10.00">FOREIGN KEY (area_id) REFERENCES material_areas(id)</text>
</g>
</g>
</svg>
