<?xml version="1.0" encoding="UTF-8" standalone="no"?>
<!DOCTYPE svg PUBLIC "-//W3C//DTD SVG 1.1//EN"
 "http://www.w3.org/Graphics/SVG/1.1/DTD/svg11.dtd">
<!-- Generated by graphviz version 12.1.2 (20240928.0832)
 -->
<!-- Title: public.material_areas Pages: 1 -->
<svg width="1336pt" height="910pt"
 viewBox="0.00 0.00 1335.81 910.00" xmlns="http://www.w3.org/2000/svg" xmlns:xlink="http://www.w3.org/1999/xlink">
<g id="graph0" class="graph" transform="scale(1 1) rotate(0) translate(4 906)">
<title>public.material_areas</title>
<polygon fill="white" stroke="none" points="-4,4 -4,-906 1331.81,-906 1331.81,4 -4,4"/>
<!-- public.material_areas -->
<g id="node1" class="node">
<title>public.material_areas</title>
<polygon fill="#efefef" stroke="none" points="500.71,-169.4 500.71,-205 793.62,-205 793.62,-169.4 500.71,-169.4"/>
<polygon fill="none" stroke="black" points="500.71,-169.4 500.71,-205 793.62,-205 793.62,-169.4 500.71,-169.4"/>
<text text-anchor="start" x="507.71" y="-182.8" font-family="Arial Bold" font-size="18.00">public.material_areas</text>
<text text-anchor="start" x="662.13" y="-182.8" font-family="Arial" font-size="14.00">    </text>
<text text-anchor="start" x="693.25" y="-182.8" font-family="Arial" font-size="14.00" fill="#666666">[BASE TABLE]</text>
<polygon fill="none" stroke="black" points="500.71,-138.6 500.71,-169.4 793.62,-169.4 793.62,-138.6 500.71,-138.6"/>
<text text-anchor="start" x="507.71" y="-150.8" font-family="Arial" font-size="14.00">id </text>
<text text-anchor="start" x="522.49" y="-150.8" font-family="Arial" font-size="14.00" fill="#666666">[bigint]</text>
<polygon fill="none" stroke="black" points="500.71,-107.8 500.71,-138.6 793.62,-138.6 793.62,-107.8 500.71,-107.8"/>
<text text-anchor="start" x="507.71" y="-120" font-family="Arial" font-size="14.00">key </text>
<text text-anchor="start" x="533.38" y="-120" font-family="Arial" font-size="14.00" fill="#666666">[text]</text>
<polygon fill="none" stroke="black" points="500.71,-77 500.71,-107.8 793.62,-107.8 793.62,-77 500.71,-77"/>
<text text-anchor="start" x="507.71" y="-89.2" font-family="Arial" font-size="14.00">label </text>
<text text-anchor="start" x="541.18" y="-89.2" font-family="Arial" font-size="14.00" fill="#666666">[text]</text>
<polygon fill="none" stroke="black" points="500.71,-46.2 500.71,-77 793.62,-77 793.62,-46.2 500.71,-46.2"/>
<text text-anchor="start" x="507.71" y="-58.4" font-family="Arial" font-size="14.00">created_at </text>
<text text-anchor="start" x="577.75" y="-58.4" font-family="Arial" font-size="14.00" fill="#666666">[timestamp with time zone]</text>
<polygon fill="none" stroke="black" stroke-width="3" points="499.21,-44.7 499.21,-206.5 795.12,-206.5 795.12,-44.7 499.21,-44.7"/>
</g>
<!-- public.learning_materials -->
<g id="node2" class="node">
<title>public.learning_materials</title>
<polygon fill="#efefef" stroke="none" points="43.2,-823.2 43.2,-858.8 365.13,-858.8 365.13,-823.2 43.2,-823.2"/>
<polygon fill="none" stroke="black" points="43.2,-823.2 43.2,-858.8 365.13,-858.8 365.13,-823.2 43.2,-823.2"/>
<text text-anchor="start" x="50.2" y="-836.6" font-family="Arial Bold" font-size="18.00">public.learning_materials</text>
<text text-anchor="start" x="233.64" y="-836.6" font-family="Arial" font-size="14.00">    </text>
<text text-anchor="start" x="264.75" y="-836.6" font-family="Arial" font-size="14.00" fill="#666666">[BASE TABLE]</text>
<polygon fill="none" stroke="black" points="43.2,-792.4 43.2,-823.2 365.13,-823.2 365.13,-792.4 43.2,-792.4"/>
<text text-anchor="start" x="50.2" y="-804.6" font-family="Arial" font-size="14.00">id </text>
<text text-anchor="start" x="64.99" y="-804.6" font-family="Arial" font-size="14.00" fill="#666666">[bigint]</text>
<polygon fill="none" stroke="black" points="43.2,-761.6 43.2,-792.4 365.13,-792.4 365.13,-761.6 43.2,-761.6"/>
<text text-anchor="start" x="50.2" y="-773.8" font-family="Arial" font-size="14.00">name </text>
<text text-anchor="start" x="89.11" y="-773.8" font-family="Arial" font-size="14.00" fill="#666666">[varchar]</text>
<polygon fill="none" stroke="black" points="43.2,-730.8 43.2,-761.6 365.13,-761.6 365.13,-730.8 43.2,-730.8"/>
<text text-anchor="start" x="50.2" y="-743" font-family="Arial" font-size="14.00">type </text>
<text text-anchor="start" x="80.55" y="-743" font-family="Arial" font-size="14.00" fill="#666666">[varchar]</text>
<polygon fill="none" stroke="black" points="43.2,-700 43.2,-730.8 365.13,-730.8 365.13,-700 43.2,-700"/>
<text text-anchor="start" x="50.2" y="-712.2" font-family="Arial" font-size="14.00">description </text>
<text text-anchor="start" x="121.79" y="-712.2" font-family="Arial" font-size="14.00" fill="#666666">[text]</text>
<polygon fill="none" stroke="black" points="43.2,-669.2 43.2,-700 365.13,-700 365.13,-669.2 43.2,-669.2"/>
<text text-anchor="start" x="50.2" y="-681.4" font-family="Arial" font-size="14.00">download_path </text>
<text text-anchor="start" x="149.06" y="-681.4" font-family="Arial" font-size="14.00" fill="#666666">[text]</text>
<polygon fill="none" stroke="black" points="43.2,-638.4 43.2,-669.2 365.13,-669.2 365.13,-638.4 43.2,-638.4"/>
<text text-anchor="start" x="50.2" y="-650.6" font-family="Arial" font-size="14.00">created_at </text>
<text text-anchor="start" x="120.25" y="-650.6" font-family="Arial" font-size="14.00" fill="#666666">[timestamp with time zone]</text>
<polygon fill="none" stroke="black" points="43.2,-607.6 43.2,-638.4 365.13,-638.4 365.13,-607.6 43.2,-607.6"/>
<text text-anchor="start" x="50.2" y="-619.8" font-family="Arial" font-size="14.00">subject_id </text>
<text text-anchor="start" x="117.13" y="-619.8" font-family="Arial" font-size="14.00" fill="#666666">[bigint]</text>
<polygon fill="none" stroke="black" points="43.2,-576.8 43.2,-607.6 365.13,-607.6 365.13,-576.8 43.2,-576.8"/>
<text text-anchor="start" x="50.2" y="-589" font-family="Arial" font-size="14.00">file_url </text>
<text text-anchor="start" x="95.33" y="-589" font-family="Arial" font-size="14.00" fill="#666666">[text]</text>
<polygon fill="none" stroke="black" points="43.2,-546 43.2,-576.8 365.13,-576.8 365.13,-546 43.2,-546"/>
<text text-anchor="start" x="50.2" y="-558.2" font-family="Arial" font-size="14.00">file_size </text>
<text text-anchor="start" x="104.67" y="-558.2" font-family="Arial" font-size="14.00" fill="#666666">[bigint]</text>
<polygon fill="none" stroke="black" points="43.2,-515.2 43.2,-546 365.13,-546 365.13,-515.2 43.2,-515.2"/>
<text text-anchor="start" x="50.2" y="-527.4" font-family="Arial" font-size="14.00">file_type </text>
<text text-anchor="start" x="106.23" y="-527.4" font-family="Arial" font-size="14.00" fill="#666666">[text]</text>
<polygon fill="none" stroke="black" points="43.2,-484.4 43.2,-515.2 365.13,-515.2 365.13,-484.4 43.2,-484.4"/>
<text text-anchor="start" x="50.2" y="-496.6" font-family="Arial" font-size="14.00">class_levels </text>
<text text-anchor="start" x="129.57" y="-496.6" font-family="Arial" font-size="14.00" fill="#666666">[text[]]</text>
<polygon fill="none" stroke="black" points="43.2,-453.6 43.2,-484.4 365.13,-484.4 365.13,-453.6 43.2,-453.6"/>
<text text-anchor="start" x="50.2" y="-465.8" font-family="Arial" font-size="14.00">created_by </text>
<text text-anchor="start" x="123.36" y="-465.8" font-family="Arial" font-size="14.00" fill="#666666">[uuid]</text>
<polygon fill="none" stroke="black" points="43.2,-422.8 43.2,-453.6 365.13,-453.6 365.13,-422.8 43.2,-422.8"/>
<text text-anchor="start" x="50.2" y="-435" font-family="Arial" font-size="14.00">is_public </text>
<text text-anchor="start" x="108.57" y="-435" font-family="Arial" font-size="14.00" fill="#666666">[boolean]</text>
<polygon fill="none" stroke="black" points="43.2,-392 43.2,-422.8 365.13,-422.8 365.13,-392 43.2,-392"/>
<text text-anchor="start" x="50.2" y="-404.2" font-family="Arial" font-size="14.00">download_count </text>
<text text-anchor="start" x="156.06" y="-404.2" font-family="Arial" font-size="14.00" fill="#666666">[integer]</text>
<polygon fill="none" stroke="black" points="43.2,-361.2 43.2,-392 365.13,-392 365.13,-361.2 43.2,-361.2"/>
<text text-anchor="start" x="50.2" y="-373.4" font-family="Arial" font-size="14.00">is_link </text>
<text text-anchor="start" x="92.99" y="-373.4" font-family="Arial" font-size="14.00" fill="#666666">[boolean]</text>
<polygon fill="none" stroke="black" points="43.2,-330.4 43.2,-361.2 365.13,-361.2 365.13,-330.4 43.2,-330.4"/>
<text text-anchor="start" x="50.2" y="-342.6" font-family="Arial" font-size="14.00">area_id </text>
<text text-anchor="start" x="100.79" y="-342.6" font-family="Arial" font-size="14.00" fill="#666666">[bigint]</text>
</g>
<!-- public.learning_materials&#45;&gt;public.material_areas -->
<g id="edge1" class="edge">
<title>public.learning_materials:area_id&#45;&gt;public.material_areas:id</title>
<path fill="none" stroke="black" d="M376.19,-343.37C422.11,-321.17 451.21,-154 499.71,-154"/>
<polygon fill="black" stroke="black" points="376.17,-343.38 365.4,-341.35 370.99,-344.63 366.78,-345.64 366.78,-345.64 366.78,-345.64 370.99,-344.63 367.5,-350.1 376.17,-343.38"/>
<text text-anchor="start" x="373.13" y="-355.8" font-family="Arial" font-size="10.00">FOREIGN KEY (area_id) REFERENCES material_areas(id)</text>
</g>
<!-- public.self_study_enrollments -->
<g id="node3" class="node">
<title>public.self_study_enrollments</title>
<polygon fill="#efefef" stroke="none" points="469.18,-730.8 469.18,-766.4 825.14,-766.4 825.14,-730.8 469.18,-730.8"/>
<polygon fill="none" stroke="black" points="469.18,-730.8 469.18,-766.4 825.14,-766.4 825.14,-730.8 469.18,-730.8"/>
<text text-anchor="start" x="476.18" y="-744.2" font-family="Arial Bold" font-size="18.00">public.self_study_enrollments</text>
<text text-anchor="start" x="693.65" y="-744.2" font-family="Arial" font-size="14.00">    </text>
<text text-anchor="start" x="724.77" y="-744.2" font-family="Arial" font-size="14.00" fill="#666666">[BASE TABLE]</text>
<polygon fill="none" stroke="black" points="469.18,-700 469.18,-730.8 825.14,-730.8 825.14,-700 469.18,-700"/>
<text text-anchor="start" x="476.18" y="-712.2" font-family="Arial" font-size="14.00">id </text>
<text text-anchor="start" x="490.97" y="-712.2" font-family="Arial" font-size="14.00" fill="#666666">[uuid]</text>
<polygon fill="none" stroke="black" points="469.18,-669.2 469.18,-700 825.14,-700 825.14,-669.2 469.18,-669.2"/>
<text text-anchor="start" x="476.18" y="-681.4" font-family="Arial" font-size="14.00">audience_id </text>
<text text-anchor="start" x="555.58" y="-681.4" font-family="Arial" font-size="14.00" fill="#666666">[text]</text>
<polygon fill="none" stroke="black" points="469.18,-638.4 469.18,-669.2 825.14,-669.2 825.14,-638.4 469.18,-638.4"/>
<text text-anchor="start" x="476.18" y="-650.6" font-family="Arial" font-size="14.00">area_id </text>
<text text-anchor="start" x="526.78" y="-650.6" font-family="Arial" font-size="14.00" fill="#666666">[bigint]</text>
<polygon fill="none" stroke="black" points="469.18,-607.6 469.18,-638.4 825.14,-638.4 825.14,-607.6 469.18,-607.6"/>
<text text-anchor="start" x="476.18" y="-619.8" font-family="Arial" font-size="14.00">beneficiary_user_id </text>
<text text-anchor="start" x="601.48" y="-619.8" font-family="Arial" font-size="14.00" fill="#666666">[uuid]</text>
<polygon fill="none" stroke="black" points="469.18,-576.8 469.18,-607.6 825.14,-607.6 825.14,-576.8 469.18,-576.8"/>
<text text-anchor="start" x="476.18" y="-589" font-family="Arial" font-size="14.00">status </text>
<text text-anchor="start" x="517.43" y="-589" font-family="Arial" font-size="14.00" fill="#666666">[text]</text>
<polygon fill="none" stroke="black" points="469.18,-546 469.18,-576.8 825.14,-576.8 825.14,-546 469.18,-546"/>
<text text-anchor="start" x="476.18" y="-558.2" font-family="Arial" font-size="14.00">access_until </text>
<text text-anchor="start" x="557.12" y="-558.2" font-family="Arial" font-size="14.00" fill="#666666">[timestamp with time zone]</text>
<polygon fill="none" stroke="black" points="469.18,-515.2 469.18,-546 825.14,-546 825.14,-515.2 469.18,-515.2"/>
<text text-anchor="start" x="476.18" y="-527.4" font-family="Arial" font-size="14.00">payment_provider_ref </text>
<text text-anchor="start" x="616.26" y="-527.4" font-family="Arial" font-size="14.00" fill="#666666">[text]</text>
<polygon fill="none" stroke="black" points="469.18,-484.4 469.18,-515.2 825.14,-515.2 825.14,-484.4 469.18,-484.4"/>
<text text-anchor="start" x="476.18" y="-496.6" font-family="Arial" font-size="14.00">invite_token_hash </text>
<text text-anchor="start" x="592.94" y="-496.6" font-family="Arial" font-size="14.00" fill="#666666">[text]</text>
<polygon fill="none" stroke="black" points="469.18,-453.6 469.18,-484.4 825.14,-484.4 825.14,-453.6 469.18,-453.6"/>
<text text-anchor="start" x="476.18" y="-465.8" font-family="Arial" font-size="14.00">created_at </text>
<text text-anchor="start" x="546.23" y="-465.8" font-family="Arial" font-size="14.00" fill="#666666">[timestamp with time zone]</text>
<polygon fill="none" stroke="black" points="469.18,-422.8 469.18,-453.6 825.14,-453.6 825.14,-422.8 469.18,-422.8"/>
<text text-anchor="start" x="476.18" y="-435" font-family="Arial" font-size="14.00">updated_at </text>
<text text-anchor="start" x="550.14" y="-435" font-family="Arial" font-size="14.00" fill="#666666">[timestamp with time zone]</text>
</g>
<!-- public.self_study_enrollments&#45;&gt;public.material_areas -->
<g id="edge2" class="edge">
<title>public.self_study_enrollments:area_id&#45;&gt;public.material_areas:id</title>
<path fill="none" stroke="black" d="M835.04,-648.85C878.01,-596.95 847,-154 794.62,-154"/>
<polygon fill="black" stroke="black" points="835.17,-648.78 824.25,-649.7 830.51,-651.37 826.73,-653.47 826.73,-653.47 826.73,-653.47 830.51,-651.37 828.62,-657.57 835.17,-648.78"/>
<text text-anchor="start" x="693.33" y="-637.8" font-family="Arial" font-size="10.00">FOREIGN KEY (area_id) REFERENCES material_areas(id)</text>
</g>
<!-- public.material_access_grants -->
<g id="node4" class="node">
<title>public.material_access_grants</title>
<polygon fill="#efefef" stroke="none" points="929.71,-730.8 929.71,-766.4 1284.61,-766.4 1284.61,-730.8 929.71,-730.8"/>
<polygon fill="none" stroke="black" points="929.71,-730.8 929.71,-766.4 1284.61,-766.4 1284.61,-730.8 929.71,-730.8"/>
<text text-anchor="start" x="936.71" y="-744.2" font-family="Arial Bold" font-size="18.00">public.material_access_grants</text>
<text text-anchor="start" x="1153.12" y="-744.2" font-family="Arial" font-size="14.00">    </text>
<text text-anchor="start" x="1184.24" y="-744.2" font-family="Arial" font-size="14.00" fill="#666666">[BASE TABLE]</text>
<polygon fill="none" stroke="black" points="929.71,-700 929.71,-730.8 1284.61,-730.8 1284.61,-700 929.71,-700"/>
<text text-anchor="start" x="936.71" y="-712.2" font-family="Arial" font-size="14.00">id </text>
<text text-anchor="start" x="951.5" y="-712.2" font-family="Arial" font-size="14.00" fill="#666666">[uuid]</text>
<polygon fill="none" stroke="black" points="929.71,-669.2 929.71,-700 1284.61,-700 1284.61,-669.2 929.71,-669.2"/>
<text text-anchor="start" x="936.71" y="-681.4" font-family="Arial" font-size="14.00">user_id </text>
<text text-anchor="start" x="986.52" y="-681.4" font-family="Arial" font-size="14.00" fill="#666666">[uuid]</text>
<polygon fill="none" stroke="black" points="929.71,-638.4 929.71,-669.2 1284.61,-669.2 1284.61,-638.4 929.71,-638.4"/>
<text text-anchor="start" x="936.71" y="-650.6" font-family="Arial" font-size="14.00">area_id </text>
<text text-anchor="start" x="987.3" y="-650.6" font-family="Arial" font-size="14.00" fill="#666666">[bigint]</text>
<polygon fill="none" stroke="black" points="929.71,-607.6 929.71,-638.4 1284.61,-638.4 1284.61,-607.6 929.71,-607.6"/>
<text text-anchor="start" x="936.71" y="-619.8" font-family="Arial" font-size="14.00">status </text>
<text text-anchor="start" x="977.95" y="-619.8" font-family="Arial" font-size="14.00" fill="#666666">[text]</text>
<polygon fill="none" stroke="black" points="929.71,-576.8 929.71,-607.6 1284.61,-607.6 1284.61,-576.8 929.71,-576.8"/>
<text text-anchor="start" x="936.71" y="-589" font-family="Arial" font-size="14.00">valid_from </text>
<text text-anchor="start" x="1005.18" y="-589" font-family="Arial" font-size="14.00" fill="#666666">[timestamp with time zone]</text>
<polygon fill="none" stroke="black" points="929.71,-546 929.71,-576.8 1284.61,-576.8 1284.61,-546 929.71,-546"/>
<text text-anchor="start" x="936.71" y="-558.2" font-family="Arial" font-size="14.00">valid_until </text>
<text text-anchor="start" x="1002.86" y="-558.2" font-family="Arial" font-size="14.00" fill="#666666">[timestamp with time zone]</text>
<polygon fill="none" stroke="black" points="929.71,-515.2 929.71,-546 1284.61,-546 1284.61,-515.2 929.71,-515.2"/>
<text text-anchor="start" x="936.71" y="-527.4" font-family="Arial" font-size="14.00">source_kind </text>
<text text-anchor="start" x="1016.09" y="-527.4" font-family="Arial" font-size="14.00" fill="#666666">[text]</text>
<polygon fill="none" stroke="black" points="929.71,-484.4 929.71,-515.2 1284.61,-515.2 1284.61,-484.4 929.71,-484.4"/>
<text text-anchor="start" x="936.71" y="-496.6" font-family="Arial" font-size="14.00">source_id </text>
<text text-anchor="start" x="1001.3" y="-496.6" font-family="Arial" font-size="14.00" fill="#666666">[uuid]</text>
<polygon fill="none" stroke="black" points="929.71,-453.6 929.71,-484.4 1284.61,-484.4 1284.61,-453.6 929.71,-453.6"/>
<text text-anchor="start" x="936.71" y="-465.8" font-family="Arial" font-size="14.00">created_at </text>
<text text-anchor="start" x="1006.76" y="-465.8" font-family="Arial" font-size="14.00" fill="#666666">[timestamp with time zone]</text>
<polygon fill="none" stroke="black" points="929.71,-422.8 929.71,-453.6 1284.61,-453.6 1284.61,-422.8 929.71,-422.8"/>
<text text-anchor="start" x="936.71" y="-435" font-family="Arial" font-size="14.00">revoked_at </text>
<text text-anchor="start" x="1009.87" y="-435" font-family="Arial" font-size="14.00" fill="#666666">[timestamp with time zone]</text>
</g>
<!-- public.material_access_grants&#45;&gt;public.material_areas -->
<g id="edge3" class="edge">
<title>public.material_access_grants:area_id&#45;&gt;public.material_areas:id</title>
<path fill="none" stroke="black" d="M918.46,-652.09C851.54,-628.24 903.9,-361.08 877.16,-287.2 853.46,-221.71 864.26,-154 794.62,-154"/>
<polygon fill="black" stroke="black" points="918.52,-652.1 927.64,-658.18 923.78,-652.98 928.05,-653.69 928.05,-653.69 928.05,-653.69 923.78,-652.98 929.12,-649.31 918.52,-652.1"/>
<text text-anchor="start" x="656.08" y="-663.8" font-family="Arial" font-size="10.00">FOREIGN KEY (area_id) REFERENCES material_areas(id)</text>
</g>
</g>
</svg>
