<?xml version="1.0" encoding="UTF-8" standalone="no"?>
<!DOCTYPE svg PUBLIC "-//W3C//DTD SVG 1.1//EN"
 "http://www.w3.org/Graphics/SVG/1.1/DTD/svg11.dtd">
<!-- Generated by graphviz version 12.1.2 (20240928.0832)
 -->
<!-- Title: storage.iceberg_namespaces Pages: 1 -->
<svg width="1097pt" height="1222pt"
 viewBox="0.00 0.00 1096.77 1222.00" xmlns="http://www.w3.org/2000/svg" xmlns:xlink="http://www.w3.org/1999/xlink">
<g id="graph0" class="graph" transform="scale(1 1) rotate(0) translate(4 1218)">
<title>storage.iceberg_namespaces</title>
<polygon fill="white" stroke="none" points="-4,4 -4,-1218 1092.77,-1218 1092.77,4 -4,4"/>
<!-- storage.iceberg_namespaces -->
<g id="node1" class="node">
<title>storage.iceberg_namespaces</title>
<polygon fill="#efefef" stroke="none" points="279.92,-635.4 279.92,-671 622.81,-671 622.81,-635.4 279.92,-635.4"/>
<polygon fill="none" stroke="black" points="279.92,-635.4 279.92,-671 622.81,-671 622.81,-635.4 279.92,-635.4"/>
<text text-anchor="start" x="286.92" y="-648.8" font-family="Arial Bold" font-size="18.00">storage.iceberg_namespaces</text>
<text text-anchor="start" x="491.32" y="-648.8" font-family="Arial" font-size="14.00">    </text>
<text text-anchor="start" x="522.44" y="-648.8" font-family="Arial" font-size="14.00" fill="#666666">[BASE TABLE]</text>
<polygon fill="none" stroke="black" points="279.92,-604.6 279.92,-635.4 622.81,-635.4 622.81,-604.6 279.92,-604.6"/>
<text text-anchor="start" x="286.92" y="-616.8" font-family="Arial" font-size="14.00">id </text>
<text text-anchor="start" x="301.71" y="-616.8" font-family="Arial" font-size="14.00" fill="#666666">[uuid]</text>
<polygon fill="none" stroke="black" points="279.92,-573.8 279.92,-604.6 622.81,-604.6 622.81,-573.8 279.92,-573.8"/>
<text text-anchor="start" x="286.92" y="-586" font-family="Arial" font-size="14.00">bucket_name </text>
<text text-anchor="start" x="374.86" y="-586" font-family="Arial" font-size="14.00" fill="#666666">[text]</text>
<polygon fill="none" stroke="black" points="279.92,-543 279.92,-573.8 622.81,-573.8 622.81,-543 279.92,-543"/>
<text text-anchor="start" x="286.92" y="-555.2" font-family="Arial" font-size="14.00">name </text>
<text text-anchor="start" x="325.83" y="-555.2" font-family="Arial" font-size="14.00" fill="#666666">[text]</text>
<polygon fill="none" stroke="black" points="279.92,-512.2 279.92,-543 622.81,-543 622.81,-512.2 279.92,-512.2"/>
<text text-anchor="start" x="286.92" y="-524.4" font-family="Arial" font-size="14.00">created_at </text>
<text text-anchor="start" x="356.97" y="-524.4" font-family="Arial" font-size="14.00" fill="#666666">[timestamp with time zone]</text>
<polygon fill="none" stroke="black" points="279.92,-481.4 279.92,-512.2 622.81,-512.2 622.81,-481.4 279.92,-481.4"/>
<text text-anchor="start" x="286.92" y="-493.6" font-family="Arial" font-size="14.00">updated_at </text>
<text text-anchor="start" x="360.88" y="-493.6" font-family="Arial" font-size="14.00" fill="#666666">[timestamp with time zone]</text>
<polygon fill="none" stroke="black" points="279.92,-450.6 279.92,-481.4 622.81,-481.4 622.81,-450.6 279.92,-450.6"/>
<text text-anchor="start" x="286.92" y="-462.8" font-family="Arial" font-size="14.00">metadata </text>
<text text-anchor="start" x="349.18" y="-462.8" font-family="Arial" font-size="14.00" fill="#666666">[jsonb]</text>
<polygon fill="none" stroke="black" points="279.92,-419.8 279.92,-450.6 622.81,-450.6 622.81,-419.8 279.92,-419.8"/>
<text text-anchor="start" x="286.92" y="-432" font-family="Arial" font-size="14.00">catalog_id </text>
<text text-anchor="start" x="354.64" y="-432" font-family="Arial" font-size="14.00" fill="#666666">[uuid]</text>
<polygon fill="none" stroke="black" stroke-width="3" points="278.42,-418.3 278.42,-672.5 624.31,-672.5 624.31,-418.3 278.42,-418.3"/>
</g>
<!-- storage.buckets_analytics -->
<g id="node3" class="node">
<title>storage.buckets_analytics</title>
<polygon fill="#efefef" stroke="none" points="289.9,-258.8 289.9,-294.4 612.83,-294.4 612.83,-258.8 289.9,-258.8"/>
<polygon fill="none" stroke="black" points="289.9,-258.8 289.9,-294.4 612.83,-294.4 612.83,-258.8 289.9,-258.8"/>
<text text-anchor="start" x="296.9" y="-272.2" font-family="Arial Bold" font-size="18.00">storage.buckets_analytics</text>
<text text-anchor="start" x="481.34" y="-272.2" font-family="Arial" font-size="14.00">    </text>
<text text-anchor="start" x="512.46" y="-272.2" font-family="Arial" font-size="14.00" fill="#666666">[BASE TABLE]</text>
<polygon fill="none" stroke="black" points="289.9,-228 289.9,-258.8 612.83,-258.8 612.83,-228 289.9,-228"/>
<text text-anchor="start" x="296.9" y="-240.2" font-family="Arial" font-size="14.00">name </text>
<text text-anchor="start" x="335.81" y="-240.2" font-family="Arial" font-size="14.00" fill="#666666">[text]</text>
<polygon fill="none" stroke="black" points="289.9,-197.2 289.9,-228 612.83,-228 612.83,-197.2 289.9,-197.2"/>
<text text-anchor="start" x="296.9" y="-209.4" font-family="Arial" font-size="14.00">type </text>
<text text-anchor="start" x="327.25" y="-209.4" font-family="Arial" font-size="14.00" fill="#666666">[storage.buckettype]</text>
<polygon fill="none" stroke="black" points="289.9,-166.4 289.9,-197.2 612.83,-197.2 612.83,-166.4 289.9,-166.4"/>
<text text-anchor="start" x="296.9" y="-178.6" font-family="Arial" font-size="14.00">format </text>
<text text-anchor="start" x="340.46" y="-178.6" font-family="Arial" font-size="14.00" fill="#666666">[text]</text>
<polygon fill="none" stroke="black" points="289.9,-135.6 289.9,-166.4 612.83,-166.4 612.83,-135.6 289.9,-135.6"/>
<text text-anchor="start" x="296.9" y="-147.8" font-family="Arial" font-size="14.00">created_at </text>
<text text-anchor="start" x="366.95" y="-147.8" font-family="Arial" font-size="14.00" fill="#666666">[timestamp with time zone]</text>
<polygon fill="none" stroke="black" points="289.9,-104.8 289.9,-135.6 612.83,-135.6 612.83,-104.8 289.9,-104.8"/>
<text text-anchor="start" x="296.9" y="-117" font-family="Arial" font-size="14.00">updated_at </text>
<text text-anchor="start" x="370.86" y="-117" font-family="Arial" font-size="14.00" fill="#666666">[timestamp with time zone]</text>
<polygon fill="none" stroke="black" points="289.9,-74 289.9,-104.8 612.83,-104.8 612.83,-74 289.9,-74"/>
<text text-anchor="start" x="296.9" y="-86.2" font-family="Arial" font-size="14.00">id </text>
<text text-anchor="start" x="311.69" y="-86.2" font-family="Arial" font-size="14.00" fill="#666666">[uuid]</text>
<polygon fill="none" stroke="black" points="289.9,-43.2 289.9,-74 612.83,-74 612.83,-43.2 289.9,-43.2"/>
<text text-anchor="start" x="296.9" y="-55.4" font-family="Arial" font-size="14.00">deleted_at </text>
<text text-anchor="start" x="366.18" y="-55.4" font-family="Arial" font-size="14.00" fill="#666666">[timestamp with time zone]</text>
</g>
<!-- storage.iceberg_namespaces&#45;&gt;storage.buckets_analytics -->
<g id="edge2" class="edge">
<title>storage.iceberg_namespaces:catalog_id&#45;&gt;storage.buckets_analytics:id</title>
<path fill="none" stroke="black" d="M452.13,-408.45C462.37,-344.5 572.52,-402.69 612.83,-337.6 670.9,-243.81 724.14,-89.4 613.83,-89.4"/>
<polygon fill="black" stroke="black" points="452.13,-408.49 446.9,-418.13 451.73,-413.81 451.41,-418.13 451.41,-418.13 451.41,-418.13 451.73,-413.81 455.88,-418.8 452.13,-408.49"/>
<text text-anchor="start" x="7" y="-428.8" font-family="Arial" font-size="10.00">FOREIGN KEY (catalog_id) REFERENCES storage.buckets_analytics(id) ON DELETE CASCADE</text>
</g>
<!-- storage.iceberg_tables -->
<g id="node2" class="node">
<title>storage.iceberg_tables</title>
<polygon fill="#efefef" stroke="none" points="301.91,-1135.2 301.91,-1170.8 600.82,-1170.8 600.82,-1135.2 301.91,-1135.2"/>
<polygon fill="none" stroke="black" points="301.91,-1135.2 301.91,-1170.8 600.82,-1170.8 600.82,-1135.2 301.91,-1135.2"/>
<text text-anchor="start" x="308.91" y="-1148.6" font-family="Arial Bold" font-size="18.00">storage.iceberg_tables</text>
<text text-anchor="start" x="469.33" y="-1148.6" font-family="Arial" font-size="14.00">    </text>
<text text-anchor="start" x="500.45" y="-1148.6" font-family="Arial" font-size="14.00" fill="#666666">[BASE TABLE]</text>
<polygon fill="none" stroke="black" points="301.91,-1104.4 301.91,-1135.2 600.82,-1135.2 600.82,-1104.4 301.91,-1104.4"/>
<text text-anchor="start" x="308.91" y="-1116.6" font-family="Arial" font-size="14.00">id </text>
<text text-anchor="start" x="323.69" y="-1116.6" font-family="Arial" font-size="14.00" fill="#666666">[uuid]</text>
<polygon fill="none" stroke="black" points="301.91,-1073.6 301.91,-1104.4 600.82,-1104.4 600.82,-1073.6 301.91,-1073.6"/>
<text text-anchor="start" x="308.91" y="-1085.8" font-family="Arial" font-size="14.00">namespace_id </text>
<text text-anchor="start" x="403.86" y="-1085.8" font-family="Arial" font-size="14.00" fill="#666666">[uuid]</text>
<polygon fill="none" stroke="black" points="301.91,-1042.8 301.91,-1073.6 600.82,-1073.6 600.82,-1042.8 301.91,-1042.8"/>
<text text-anchor="start" x="308.91" y="-1055" font-family="Arial" font-size="14.00">bucket_name </text>
<text text-anchor="start" x="396.85" y="-1055" font-family="Arial" font-size="14.00" fill="#666666">[text]</text>
<polygon fill="none" stroke="black" points="301.91,-1012 301.91,-1042.8 600.82,-1042.8 600.82,-1012 301.91,-1012"/>
<text text-anchor="start" x="308.91" y="-1024.2" font-family="Arial" font-size="14.00">name </text>
<text text-anchor="start" x="347.82" y="-1024.2" font-family="Arial" font-size="14.00" fill="#666666">[text]</text>
<polygon fill="none" stroke="black" points="301.91,-981.2 301.91,-1012 600.82,-1012 600.82,-981.2 301.91,-981.2"/>
<text text-anchor="start" x="308.91" y="-993.4" font-family="Arial" font-size="14.00">location </text>
<text text-anchor="start" x="361.05" y="-993.4" font-family="Arial" font-size="14.00" fill="#666666">[text]</text>
<polygon fill="none" stroke="black" points="301.91,-950.4 301.91,-981.2 600.82,-981.2 600.82,-950.4 301.91,-950.4"/>
<text text-anchor="start" x="308.91" y="-962.6" font-family="Arial" font-size="14.00">created_at </text>
<text text-anchor="start" x="378.95" y="-962.6" font-family="Arial" font-size="14.00" fill="#666666">[timestamp with time zone]</text>
<polygon fill="none" stroke="black" points="301.91,-919.6 301.91,-950.4 600.82,-950.4 600.82,-919.6 301.91,-919.6"/>
<text text-anchor="start" x="308.91" y="-931.8" font-family="Arial" font-size="14.00">updated_at </text>
<text text-anchor="start" x="382.86" y="-931.8" font-family="Arial" font-size="14.00" fill="#666666">[timestamp with time zone]</text>
<polygon fill="none" stroke="black" points="301.91,-888.8 301.91,-919.6 600.82,-919.6 600.82,-888.8 301.91,-888.8"/>
<text text-anchor="start" x="308.91" y="-901" font-family="Arial" font-size="14.00">remote_table_id </text>
<text text-anchor="start" x="413.19" y="-901" font-family="Arial" font-size="14.00" fill="#666666">[text]</text>
<polygon fill="none" stroke="black" points="301.91,-858 301.91,-888.8 600.82,-888.8 600.82,-858 301.91,-858"/>
<text text-anchor="start" x="308.91" y="-870.2" font-family="Arial" font-size="14.00">shard_key </text>
<text text-anchor="start" x="377.39" y="-870.2" font-family="Arial" font-size="14.00" fill="#666666">[text]</text>
<polygon fill="none" stroke="black" points="301.91,-827.2 301.91,-858 600.82,-858 600.82,-827.2 301.91,-827.2"/>
<text text-anchor="start" x="308.91" y="-839.4" font-family="Arial" font-size="14.00">shard_id </text>
<text text-anchor="start" x="366.5" y="-839.4" font-family="Arial" font-size="14.00" fill="#666666">[text]</text>
<polygon fill="none" stroke="black" points="301.91,-796.4 301.91,-827.2 600.82,-827.2 600.82,-796.4 301.91,-796.4"/>
<text text-anchor="start" x="308.91" y="-808.6" font-family="Arial" font-size="14.00">catalog_id </text>
<text text-anchor="start" x="376.62" y="-808.6" font-family="Arial" font-size="14.00" fill="#666666">[uuid]</text>
</g>
<!-- storage.iceberg_tables&#45;&gt;storage.iceberg_namespaces -->
<g id="edge1" class="edge">
<title>storage.iceberg_tables:namespace_id&#45;&gt;storage.iceberg_namespaces:id</title>
<path fill="none" stroke="black" d="M611.94,-1087.48C707.48,-1058.37 724.68,-620 623.81,-620"/>
<polygon fill="black" stroke="black" points="612.04,-1087.47 601.48,-1084.5 606.77,-1088.26 602.48,-1088.9 602.48,-1088.9 602.48,-1088.9 606.77,-1088.26 602.82,-1093.4 612.04,-1087.47"/>
<text text-anchor="start" x="608.82" y="-1099" font-family="Arial" font-size="10.00">FOREIGN KEY (namespace_id) REFERENCES storage.iceberg_namespaces(id) ON DELETE CASCADE</text>
</g>
</g>
</svg>
